<?xml version="1.0" standalone="no"?>
<!DOCTYPE svg PUBLIC "-//W3C//DTD SVG 20010904//EN"
 "http://www.w3.org/TR/2001/REC-SVG-20010904/DTD/svg10.dtd">
<svg version="1.0" xmlns="http://www.w3.org/2000/svg"
 width="500.000000pt" height="89.000000pt" viewBox="0 0 500.000000 89.000000"
 preserveAspectRatio="xMidYMid meet">

<g transform="translate(0.000000,89.000000) scale(0.100000,-0.100000)"
fill="#000000" stroke="none">
<path d="M677 855 c-112 -28 -198 -152 -183 -261 17 -124 120 -217 241 -218
216 -2 327 259 174 412 -63 63 -149 88 -232 67z m63 -12 c0 -5 -4 -15 -10 -23
-11 -18 -25 -7 -17 15 6 15 27 21 27 8z m46 -19 c-3 -9 -6 -18 -6 -20 0 -3 -4
-3 -10 1 -11 7 -2 35 12 35 6 0 7 -7 4 -16z m-126 -9 c0 -8 -2 -15 -4 -15 -2
0 -6 7 -10 15 -3 8 -1 15 4 15 6 0 10 -7 10 -15z m183 -16 c-17 -17 -37 -1
-22 17 8 10 15 12 23 4 7 -7 7 -13 -1 -21z m-220 -4 c8 -18 -11 -31 -25 -17
-11 11 -3 32 12 32 4 0 10 -7 13 -15z m257 -20 c-7 -9 -15 -13 -18 -10 -3 2 1
11 8 20 7 9 15 13 18 10 3 -2 -1 -11 -8 -20z m-125 -9 c13 -19 14 -29 5 -45
-10 -19 -9 -20 15 -11 25 9 75 4 75 -7 0 -14 -38 -32 -66 -33 -24 0 -33 -5
-38 -22 -10 -39 -6 -54 7 -28 10 20 21 26 55 28 26 2 42 -1 42 -8 0 -17 -56
-70 -74 -70 -10 0 -16 -9 -16 -24 0 -13 -6 -26 -12 -29 -23 -7 -38 4 -38 29 0
14 -6 24 -14 24 -20 0 -76 49 -76 66 0 12 10 14 42 12 33 -2 45 -8 56 -28 l14
-25 -6 25 c-3 14 -6 31 -6 38 0 7 -13 12 -33 12 -35 0 -77 23 -65 36 10 9 59
9 81 0 16 -8 16 -6 6 17 -8 18 -8 30 0 46 15 27 27 27 46 -3z m-169 -23 c-7
-7 -26 7 -26 19 0 6 6 6 15 -2 9 -7 13 -15 11 -17z m330 -8 c-5 -13 -8 -14
-20 -3 -12 11 -12 14 3 19 20 8 25 4 17 -16z m-356 -20 c7 -8 8 -15 2 -15 -5
0 -15 7 -22 15 -7 8 -8 15 -2 15 5 0 15 -7 22 -15z m393 -19 c7 -17 -1 -26
-20 -26 -8 0 -11 5 -8 10 3 6 0 10 -7 10 -9 0 -9 3 2 10 20 13 27 12 33 -4z
m-403 -26 c0 -5 -9 -6 -20 -3 -11 3 -17 9 -15 14 7 10 35 1 35 -11z m407 -36
c-3 -3 -12 -4 -19 -1 -8 3 -5 6 6 6 11 1 17 -2 13 -5z m-407 -12 c0 -4 -9 -8
-20 -9 -11 -1 -20 2 -20 8 0 5 9 9 20 9 11 0 20 -4 20 -8z m394 -28 c22 -8 20
-24 -2 -24 -10 0 -19 7 -19 15 0 17 0 17 21 9z m-387 -34 c-1 -11 -7 -20 -14
-20 -15 0 -13 21 2 32 14 11 14 10 12 -12z m370 -45 c-6 -7 -17 -10 -24 -8 -9
4 -9 8 0 18 6 7 17 10 24 8 9 -4 9 -8 0 -18z m-337 0 c0 -2 -10 -10 -22 -16
-21 -11 -22 -11 -9 4 13 16 31 23 31 12z m250 -26 c0 -5 -20 -9 -44 -9 -25 0
-48 -5 -52 -11 -4 -8 -9 -8 -17 0 -6 6 -30 11 -54 11 -24 0 -43 4 -43 9 0 5
47 9 105 9 58 0 105 -4 105 -9z m-190 -48 c0 -12 -20 -25 -27 -18 -7 7 6 27
18 27 5 0 9 -4 9 -9z m190 -11 c0 -11 -4 -20 -10 -20 -5 0 -10 2 -10 4 0 2 -3
11 -6 20 -4 11 -1 16 10 16 9 0 16 -8 16 -20z m-142 -13 c2 -12 -3 -17 -17
-17 -12 0 -21 6 -21 13 0 31 32 34 38 4z m97 -16 c-14 -14 -17 -14 -25 -1 -13
21 8 44 27 28 12 -10 12 -14 -2 -27z m-47 6 c2 -10 -3 -17 -12 -17 -18 0 -29
16 -21 31 9 14 29 6 33 -14z"/>
<path d="M724 757 c-4 -10 -2 -23 3 -28 14 -14 24 13 13 32 -7 11 -10 10 -16
-4z"/>
<path d="M650 696 c0 -2 9 -6 20 -9 11 -3 20 -1 20 4 0 5 -9 9 -20 9 -11 0
-20 -2 -20 -4z"/>
<path d="M780 691 c0 -5 9 -7 20 -4 11 3 20 7 20 9 0 2 -9 4 -20 4 -11 0 -20
-4 -20 -9z"/>
<path d="M640 630 c0 -11 33 -30 52 -30 7 1 3 9 -11 20 -25 22 -41 26 -41 10z"/>
<path d="M798 633 c-19 -5 -33 -33 -15 -33 14 1 47 24 47 34 0 6 -5 6 -32 -1z"/>
<path d="M670 420 c0 -5 5 -10 11 -10 5 0 7 5 4 10 -3 6 -8 10 -11 10 -2 0 -4
-4 -4 -10z"/>
<path d="M775 410 c3 -5 8 -10 11 -10 2 0 4 5 4 10 0 6 -5 10 -11 10 -5 0 -7
-4 -4 -10z"/>
<path d="M1430 440 c0 -353 0 -360 20 -360 20 0 20 7 20 360 0 353 0 360 -20
360 -20 0 -20 -7 -20 -360z"/>
<path d="M2812 660 c-12 -32 -2 -110 14 -110 10 0 14 12 14 40 0 25 5 40 13
40 8 0 7 4 -3 11 -11 8 -12 12 -2 16 19 8 14 23 -8 23 -11 0 -24 -9 -28 -20z"/>
<path d="M1580 610 c0 -59 0 -60 28 -60 43 0 72 26 72 64 0 42 -15 56 -62 56
l-38 0 0 -60z m76 15 c7 -27 -10 -55 -32 -55 -10 0 -14 13 -14 40 0 33 3 40
20 40 13 0 22 -9 26 -25z"/>
<path d="M2113 648 c-7 -13 -7 -32 3 -75 4 -23 44 -34 44 -13 0 6 -4 10 -10
10 -5 0 -10 14 -10 30 0 17 5 30 11 30 6 0 4 7 -5 15 -18 18 -23 19 -33 3z"/>
<path d="M2583 649 c-5 -5 -7 -28 -4 -52 5 -34 10 -43 29 -45 25 -4 30 13 7
22 -19 7 -19 43 0 53 12 7 12 10 -4 20 -12 7 -22 8 -28 2z"/>
<path d="M1719 629 c-21 -21 -19 -56 5 -71 16 -11 56 -10 56 2 0 6 -11 10 -25
10 -14 0 -25 5 -25 10 0 6 14 10 30 10 23 0 30 4 30 20 0 10 -9 24 -19 30 -26
13 -28 13 -52 -11z m46 -9 c3 -5 -3 -10 -14 -10 -12 0 -21 5 -21 10 0 6 6 10
14 10 8 0 18 -4 21 -10z"/>
<path d="M1838 642 c-27 -3 -28 -5 -28 -68 0 -50 3 -64 15 -64 9 0 15 9 15 23
0 18 5 23 21 23 28 -1 44 24 36 56 -8 29 -20 35 -59 30z m32 -48 c0 -15 -6
-24 -15 -24 -15 0 -21 40 -9 53 12 11 24 -3 24 -29z"/>
<path d="M1940 640 c-12 -8 -11 -10 7 -10 34 0 36 -17 2 -24 -25 -5 -30 -10
-27 -28 2 -19 10 -23 41 -25 36 -1 37 0 37 36 0 53 -25 74 -60 51z m40 -50 c0
-13 -28 -25 -38 -16 -3 4 0 11 8 16 20 13 30 12 30 0z"/>
<path d="M2071 641 c-8 -5 -20 -7 -28 -4 -10 4 -13 -7 -13 -41 0 -25 5 -46 10
-46 6 0 10 14 10 31 0 22 5 32 20 36 11 3 20 12 20 19 0 16 -1 16 -19 5z"/>
<path d="M2208 643 c-26 -4 -28 -8 -28 -49 0 -57 27 -63 32 -7 4 52 28 56 28
4 0 -54 27 -58 32 -4 4 52 28 56 28 4 0 -30 4 -41 15 -41 11 0 15 11 15 39 0
47 -20 67 -49 52 -13 -7 -22 -8 -26 -1 -3 5 -9 9 -13 9 -4 -1 -19 -4 -34 -6z"/>
<path d="M2369 631 c-20 -16 -22 -23 -14 -47 8 -23 17 -30 43 -32 18 -2 32 1
32 7 0 6 -11 11 -25 11 -33 0 -32 18 2 22 32 4 39 20 18 42 -21 20 -28 20 -56
-3z m41 -11 c0 -5 -7 -10 -15 -10 -8 0 -15 5 -15 10 0 6 7 10 15 10 8 0 15 -4
15 -10z"/>
<path d="M2500 640 c-7 -4 -19 -6 -27 -3 -10 4 -13 -7 -13 -41 0 -33 4 -46 14
-46 10 0 16 13 18 37 4 52 28 56 28 4 0 -30 4 -41 15 -41 23 0 20 76 -3 89
-10 5 -24 6 -32 1z"/>
<path d="M2709 631 c-20 -16 -22 -23 -14 -47 11 -32 46 -44 71 -24 21 18 18
67 -5 80 -25 13 -25 13 -52 -9z m46 -32 c0 -15 -7 -25 -17 -27 -13 -3 -18 3
-18 21 0 13 3 27 7 31 13 12 28 -1 28 -25z"/>
<path d="M2077 454 c-4 -4 -7 -17 -7 -29 0 -18 -5 -21 -23 -18 -46 9 -74 -56
-47 -108 12 -21 50 -25 68 -7 9 9 12 9 12 0 0 -7 7 -12 15 -12 13 0 15 14 13
87 -3 79 -12 106 -31 87z m-1 -100 c9 -35 -18 -63 -40 -44 -16 13 -22 51 -9
63 16 16 43 6 49 -19z"/>
<path d="M2457 454 c-13 -13 -7 -24 14 -24 11 0 19 5 17 12 -5 14 -22 21 -31
12z"/>
<path d="M3510 425 c0 -33 -1 -34 -20 -23 -42 27 -83 -37 -58 -89 12 -25 19
-28 61 -28 l47 -1 0 88 c0 72 -3 88 -15 88 -10 0 -15 -11 -15 -35z m-2 -79 c4
-30 -12 -48 -35 -39 -14 5 -18 54 -6 67 15 15 38 -1 41 -28z"/>
<path d="M4037 454 c-4 -4 -7 -45 -7 -91 0 -76 2 -83 19 -83 17 0 20 8 23 48
3 39 6 47 23 47 17 0 20 -8 23 -47 2 -34 7 -48 18 -48 10 0 14 14 14 54 0 61
-16 82 -54 72 -21 -5 -25 -2 -28 21 -3 26 -18 39 -31 27z"/>
<path d="M4490 370 c0 -73 3 -90 15 -90 12 0 15 17 15 90 0 73 -3 90 -15 90
-12 0 -15 -17 -15 -90z"/>
<path d="M1580 365 c0 -69 3 -85 15 -85 10 0 15 11 15 35 0 32 2 35 30 35 17
0 30 5 30 10 0 6 -13 10 -30 10 -25 0 -30 4 -30 25 0 21 5 25 30 25 20 0 30 5
30 15 0 11 -12 15 -45 15 l-45 0 0 -85z"/>
<path d="M2218 439 c-31 -17 -22 -57 17 -80 47 -28 47 -53 0 -47 -28 3 -35 1
-33 -11 4 -20 64 -27 84 -10 26 21 17 57 -21 81 -41 27 -40 42 3 46 34 3 42
16 16 26 -22 9 -46 7 -66 -5z"/>
<path d="M3630 435 c0 -8 9 -15 20 -15 18 0 20 -7 20 -70 0 -56 3 -70 15 -70
12 0 15 14 15 70 0 68 1 70 25 70 16 0 25 6 25 15 0 12 -13 15 -60 15 -47 0
-60 -3 -60 -15z"/>
<path d="M1722 394 c-28 -19 -30 -74 -4 -97 42 -38 102 -8 102 51 0 32 -29 62
-60 62 -9 0 -26 -7 -38 -16z m66 -45 c4 -34 -22 -57 -43 -39 -16 13 -20 51 -8
64 16 16 48 1 51 -25z"/>
<path d="M1865 396 c-13 -9 -19 -26 -19 -51 0 -41 22 -65 59 -65 37 0 59 24
59 65 0 41 -22 65 -59 65 -12 0 -30 -6 -40 -14z m65 -50 c0 -33 -13 -47 -37
-39 -14 5 -18 55 -6 66 3 4 15 7 25 7 14 0 18 -8 18 -34z"/>
<path d="M2347 392 c-24 -26 -22 -88 2 -102 30 -16 71 -13 71 6 0 10 -6 13
-19 9 -23 -7 -44 17 -39 47 2 17 11 24 31 26 15 2 27 9 27 18 0 21 -54 18 -73
-4z"/>
<path d="M2457 404 c-4 -4 -7 -34 -7 -66 0 -52 2 -58 20 -58 19 0 21 5 18 62
-3 57 -14 79 -31 62z"/>
<path d="M2537 392 c-23 -25 -21 -75 2 -96 22 -20 82 -19 89 2 3 9 -3 11 -22
6 -26 -6 -56 9 -56 27 0 5 18 9 40 9 33 0 40 3 40 19 0 46 -62 67 -93 33z m61
-20 c2 -7 -7 -12 -23 -12 -24 0 -26 2 -15 15 14 17 31 16 38 -3z"/>
<path d="M2667 403 c-4 -3 -7 -33 -7 -65 0 -51 2 -58 19 -58 17 0 20 8 23 48
3 39 6 47 23 47 17 0 20 -8 23 -47 2 -34 7 -48 18 -48 10 0 14 13 14 53 0 57
-12 77 -45 77 -12 0 -26 -5 -33 -12 -9 -9 -12 -9 -12 0 0 13 -13 16 -23 5z"/>
<path d="M2833 395 c-28 -19 -31 -75 -7 -100 20 -19 75 -17 82 4 3 10 -1 12
-16 9 -32 -9 -56 14 -48 45 4 18 14 27 31 29 14 2 26 8 26 13 0 17 -45 17 -68
0z"/>
<path d="M2947 392 c-23 -25 -21 -75 2 -96 22 -20 82 -19 89 2 3 9 -3 11 -22
6 -27 -6 -60 11 -50 27 3 5 22 9 44 9 34 0 38 2 33 23 -11 46 -66 63 -96 29z
m61 -20 c2 -7 -7 -12 -23 -12 -24 0 -26 2 -15 15 14 17 31 16 38 -3z"/>
<path d="M3150 400 c-16 -10 -11 -12 29 -14 32 -1 40 -26 9 -26 -36 0 -60 -22
-56 -51 3 -22 8 -24 56 -24 l52 -1 0 51 c0 28 -5 56 -12 63 -14 14 -57 15 -78
2z m60 -69 c0 -5 -7 -14 -15 -21 -18 -15 -42 1 -31 19 8 13 46 15 46 2z"/>
<path d="M3280 343 c0 -48 3 -63 14 -63 11 0 16 14 18 48 3 40 6 47 26 50 20
3 22 0 22 -47 0 -39 4 -51 15 -51 11 0 15 13 15 54 0 63 -10 74 -67 73 l-43
-2 0 -62z"/>
<path d="M3787 392 c-23 -25 -21 -75 2 -96 22 -20 82 -19 89 2 3 9 -3 11 -22
6 -27 -6 -60 11 -50 27 3 5 22 9 44 9 34 0 38 2 33 23 -11 46 -66 63 -96 29z
m61 -20 c2 -7 -7 -12 -23 -12 -24 0 -26 2 -15 15 14 17 31 16 38 -3z"/>
<path d="M3927 392 c-24 -26 -22 -88 2 -102 30 -16 71 -13 71 6 0 10 -6 13
-19 9 -23 -7 -44 17 -39 47 2 17 11 24 31 26 15 2 27 9 27 18 0 21 -54 18 -73
-4z"/>
<path d="M4190 345 c0 -50 3 -65 14 -65 11 0 16 14 18 48 3 40 6 47 26 50 20
3 22 0 22 -47 0 -44 3 -51 20 -51 16 0 20 7 20 38 0 20 -3 47 -6 60 -7 26 -48
40 -68 23 -10 -8 -16 -9 -21 -1 -16 25 -25 5 -25 -55z"/>
<path d="M4355 396 c-13 -9 -19 -26 -19 -51 0 -41 22 -65 59 -65 37 0 59 24
59 65 0 41 -22 65 -59 65 -12 0 -30 -6 -40 -14z m65 -50 c0 -33 -13 -47 -37
-39 -14 5 -18 55 -6 66 3 4 15 7 25 7 14 0 18 -8 18 -34z"/>
<path d="M4570 390 c-39 -39 -14 -110 40 -110 38 0 60 24 60 64 0 59 -59 87
-100 46z m68 -38 c2 -13 -2 -29 -8 -37 -19 -23 -40 -6 -40 32 0 30 3 34 23 31
14 -2 23 -11 25 -26z"/>
<path d="M4711 396 c-7 -8 -10 -34 -7 -65 3 -28 0 -51 -5 -51 -5 0 -9 -9 -9
-20 0 -24 37 -41 71 -33 72 18 62 81 -13 84 -19 1 -18 3 9 11 18 6 35 19 38
29 3 11 8 28 11 39 5 18 1 20 -39 20 -26 0 -49 -6 -56 -14z m54 -31 c0 -28
-29 -25 -33 3 -3 19 0 23 15 20 10 -2 18 -12 18 -23z m15 -100 c0 -16 -55 -22
-64 -6 -8 13 5 21 36 21 18 0 28 -5 28 -15z"/>
<path d="M4820 407 c0 -2 12 -32 26 -67 l26 -64 -22 -18 c-26 -21 -18 -40 13
-29 16 6 31 31 54 92 17 46 29 86 27 88 -11 12 -35 -14 -45 -49 l-13 -42 -16
44 c-9 24 -23 44 -33 46 -9 2 -17 2 -17 -1z"/>
<path d="M100 225 c0 -60 3 -75 15 -75 12 0 15 15 15 75 0 60 -3 75 -15 75
-12 0 -15 -15 -15 -75z"/>
<path d="M170 225 c0 -60 3 -75 15 -75 10 0 15 10 15 30 0 25 4 30 23 30 29 0
47 18 47 47 0 26 -27 43 -69 43 l-31 0 0 -75z m68 31 c4 -17 -12 -35 -30 -36
-5 0 -8 14 -8 31 0 24 4 30 17 27 10 -2 19 -12 21 -22z"/>
<path d="M300 298 c-1 -2 -2 -36 -3 -76 -2 -68 0 -73 20 -78 38 -10 78 9 81
39 2 17 -2 29 -12 33 -14 5 -14 8 0 29 13 20 13 24 -1 39 -13 13 -83 24 -85
14z m65 -28 c8 -13 -13 -40 -31 -40 -8 0 -14 10 -14 25 0 18 5 25 19 25 11 0
23 -5 26 -10z m4 -68 c12 -22 -3 -42 -31 -42 -13 0 -18 8 -18 30 0 23 4 30 20
30 10 0 24 -8 29 -18z"/>
<path d="M480 237 c0 -49 4 -68 18 -80 47 -43 92 -4 92 80 0 78 -19 75 -22 -4
-3 -63 -5 -68 -27 -71 -32 -5 -41 12 -41 81 0 31 -4 57 -10 57 -6 0 -10 -28
-10 -63z"/>
<path d="M730 290 c0 -5 5 -10 10 -10 6 0 10 5 10 10 0 6 -4 10 -10 10 -5 0
-10 -4 -10 -10z"/>
<path d="M1150 290 c0 -5 5 -10 10 -10 6 0 10 5 10 10 0 6 -4 10 -10 10 -5 0
-10 -4 -10 -10z"/>
<path d="M1204 268 c-11 -17 -4 -100 8 -115 6 -7 15 -13 21 -13 7 0 7 4 -1 12
-14 14 -16 95 -3 100 5 2 3 9 -4 15 -11 10 -16 10 -21 1z"/>
<path d="M622 248 c-14 -14 -16 -98 -2 -98 6 0 10 20 10 45 0 50 18 67 46 44
11 -9 15 -25 12 -51 -2 -21 0 -38 4 -38 5 0 8 22 8 49 0 35 -4 51 -16 55 -25
9 -49 7 -62 -6z"/>
<path d="M730 205 c0 -30 5 -55 10 -55 6 0 10 25 10 55 0 30 -4 55 -10 55 -5
0 -10 -25 -10 -55z"/>
<path d="M770 253 c0 -23 36 -103 45 -100 11 4 48 97 41 105 -3 2 -13 -15 -22
-39 l-18 -43 -17 42 c-17 39 -29 53 -29 35z"/>
<path d="M887 242 c-23 -25 -21 -65 3 -87 17 -15 24 -16 45 -7 14 6 25 16 25
22 0 6 -7 6 -19 -1 -24 -16 -51 -5 -51 21 0 15 7 20 29 20 35 0 48 15 31 35
-17 20 -44 19 -63 -3z m51 -10 c2 -7 -7 -12 -22 -12 -27 0 -35 15 -13 23 17 7
30 3 35 -11z"/>
<path d="M992 248 c-14 -14 -16 -98 -3 -98 6 0 11 21 13 48 3 42 5 47 26 45
13 -2 21 1 17 7 -8 14 -38 13 -53 -2z"/>
<path d="M1067 253 c-15 -15 -5 -44 18 -55 24 -11 32 -28 19 -41 -4 -3 -15 -2
-26 4 -11 6 -22 8 -25 5 -3 -3 6 -11 21 -17 22 -11 29 -10 43 3 20 21 11 46
-22 58 -14 5 -25 14 -25 19 0 16 21 24 33 12 17 -17 31 -13 17 4 -13 16 -42
20 -53 8z"/>
<path d="M1157 253 c-11 -10 -8 -103 3 -103 6 0 10 25 10 55 0 56 -1 60 -13
48z"/>
<path d="M1258 255 c-3 -4 2 -27 13 -52 24 -57 24 -83 -1 -90 -19 -5 -29 -23
-12 -23 21 0 43 31 67 94 27 74 26 108 -2 38 -15 -41 -33 -55 -33 -29 -1 22
-25 69 -32 62z"/>
<path d="M777 110 c-4 -8 -5 -22 -4 -30 1 -8 -2 -15 -8 -15 -5 0 -9 6 -8 14 1
8 -2 10 -8 4 -5 -5 -7 -17 -3 -26 7 -19 29 -23 39 -7 5 8 11 7 20 0 16 -13 35
-5 35 14 0 22 -27 39 -36 24 -6 -9 -10 -6 -15 12 -4 18 -8 21 -12 10z m45 -52
c-9 -9 -12 -7 -12 12 0 19 3 21 12 12 9 -9 9 -15 0 -24z"/>
<path d="M400 80 c0 -33 22 -49 43 -31 10 8 17 7 25 -1 9 -9 17 -7 33 7 20 19
20 19 14 -8 -6 -23 -4 -27 13 -27 26 0 38 18 18 26 -8 3 -18 15 -22 26 -3 11
-8 17 -11 14 -4 -3 -12 -1 -19 4 -8 8 -16 6 -27 -5 -21 -21 -30 -19 -22 5 3
11 2 20 -4 20 -5 0 -8 -13 -6 -30 2 -16 0 -30 -5 -30 -6 0 -10 14 -10 30 0 17
-4 30 -10 30 -5 0 -10 -14 -10 -30z m90 -12 c0 -16 -3 -19 -11 -11 -6 6 -8 16
-5 22 11 17 16 13 16 -11z m57 -34 c-3 -3 -12 -4 -19 -1 -8 3 -5 6 6 6 11 1
17 -2 13 -5z"/>
<path d="M673 75 c0 -22 2 -30 4 -17 2 12 2 30 0 40 -3 9 -5 -1 -4 -23z"/>
<path d="M564 86 c-8 -22 3 -49 19 -43 6 2 12 14 12 27 0 27 -22 39 -31 16z
m26 -16 c0 -11 -4 -20 -10 -20 -5 0 -10 9 -10 20 0 11 5 20 10 20 6 0 10 -9
10 -20z"/>
<path d="M623 93 c-7 -2 -12 -17 -12 -31 1 -21 2 -23 6 -7 3 11 10 26 15 33
11 13 10 13 -9 5z"/>
<path d="M879 68 c4 -28 6 -29 9 -9 2 13 0 27 -5 32 -6 6 -7 -3 -4 -23z"/>
<path d="M907 93 c-11 -10 -8 -41 4 -49 6 -3 16 -1 22 5 9 9 8 11 -5 6 -14 -5
-18 -2 -18 14 0 15 4 19 17 14 11 -4 14 -3 9 5 -8 13 -19 15 -29 5z"/>
<path d="M955 90 c-4 -6 -2 -17 5 -24 8 -11 8 -15 -2 -19 -9 -4 -9 -6 -1 -6
18 -1 27 20 13 29 -7 4 -9 13 -6 19 4 6 5 11 2 11 -3 0 -8 -5 -11 -10z"/>
<path d="M1014 89 c-4 -8 -3 -9 4 -5 8 5 12 -1 12 -16 0 -18 -2 -20 -10 -8 -8
13 -10 12 -10 -2 0 -10 7 -18 15 -18 9 0 15 9 15 24 0 28 -15 42 -26 25z"/>
<path d="M690 70 c0 -11 2 -20 4 -20 2 0 6 9 9 20 3 11 1 20 -4 20 -5 0 -9 -9
-9 -20z"/>
<path d="M722 70 c0 -14 2 -19 5 -12 2 6 2 18 0 25 -3 6 -5 1 -5 -13z"/>
<path d="M852 70 c0 -14 2 -19 5 -12 2 6 2 18 0 25 -3 6 -5 1 -5 -13z"/>
<path d="M992 70 c0 -14 2 -19 5 -12 2 6 2 18 0 25 -3 6 -5 1 -5 -13z"/>
</g>
</svg>
