<?xml version="1.0" standalone="no"?>
<!DOCTYPE svg PUBLIC "-//W3C//DTD SVG 20010904//EN"
 "http://www.w3.org/TR/2001/REC-SVG-20010904/DTD/svg10.dtd">
<svg version="1.0" xmlns="http://www.w3.org/2000/svg"
 width="1200.000000pt" height="1200.000000pt" viewBox="0 0 1200.000000 1200.000000"
 preserveAspectRatio="xMidYMid meet">

<g transform="translate(0.000000,1200.000000) scale(0.100000,-0.100000)"
fill="#000000" stroke="none">
<path d="M5730 11993 c-434 -22 -846 -84 -1247 -188 -1205 -313 -2293 -1005
-3096 -1969 -1236 -1483 -1679 -3472 -1192 -5351 431 -1666 1576 -3076 3126
-3851 191 -95 419 -195 594 -258 55 -20 110 -41 121 -46 12 -4 95 -31 185 -59
1297 -399 2665 -353 3939 132 250 95 611 270 857 413 1401 819 2410 2163 2802
3729 123 492 174 923 174 1455 0 744 -118 1413 -369 2088 -795 2134 -2727
3637 -4984 3876 -285 31 -656 43 -910 29z m785 -58 c1706 -151 3236 -1005
4263 -2379 465 -623 813 -1357 1001 -2111 190 -766 226 -1576 105 -2365 -157
-1018 -586 -1992 -1236 -2801 -1004 -1251 -2445 -2038 -4038 -2203 -673 -70
-1393 -19 -2055 145 -1448 361 -2722 1267 -3541 2519 -945 1447 -1217 3230
-744 4893 488 1718 1744 3145 3387 3846 669 285 1315 431 2103 475 130 7 589
-4 755 -19z"/>
<path d="M5665 11864 c-811 -52 -1551 -248 -2265 -600 -1618 -798 -2786 -2307
-3151 -4074 -120 -581 -151 -1254 -84 -1850 243 -2155 1661 -4003 3685 -4803
510 -201 1029 -324 1620 -383 245 -25 815 -25 1060 0 599 60 1123 185 1645
393 1695 677 2991 2119 3479 3874 91 328 155 678 193 1049 24 247 24 816 0
1060 -51 501 -132 887 -282 1335 -459 1378 -1420 2540 -2690 3254 -714 402
-1460 636 -2310 726 -143 16 -755 28 -900 19z m206 -388 c168 -36 229 -114
214 -271 -8 -87 -42 -164 -86 -198 -45 -33 -124 -55 -234 -65 l-90 -7 -3 -182
-2 -183 -70 0 -70 0 0 460 0 460 138 0 c79 0 165 -6 203 -14z m1274 -152 c121
-31 222 -58 224 -60 2 -2 -27 -103 -33 -111 -1 -1 -75 16 -166 37 -91 21 -168
36 -171 32 -11 -12 -52 -242 -45 -250 4 -4 73 -19 153 -34 80 -15 148 -30 151
-32 8 -8 -20 -126 -29 -126 -5 0 -75 14 -155 31 -80 17 -150 27 -154 22 -4 -4
-17 -53 -29 -108 -13 -55 -25 -107 -27 -116 -4 -14 21 -23 151 -54 85 -20 155
-41 155 -47 0 -19 -33 -118 -39 -118 -17 0 -424 100 -429 105 -5 5 175 869
185 888 3 4 12 6 21 3 10 -3 116 -31 237 -62z m-3051 -188 c9 -27 15 -51 13
-52 -1 -1 -40 -13 -87 -26 -68 -19 -84 -28 -82 -42 2 -9 52 -180 113 -378 60
-199 106 -365 102 -369 -10 -8 -116 -39 -121 -35 -2 3 -232 756 -232 762 0 1
-37 -9 -82 -22 -46 -13 -88 -24 -94 -24 -10 0 -47 100 -40 107 10 10 482 140
487 134 4 -3 14 -28 23 -55z m4148 -192 c194 -70 329 -171 363 -274 32 -96 6
-209 -62 -271 -59 -56 -110 -74 -210 -74 -87 0 -92 -1 -88 -20 16 -74 56 -358
51 -362 -5 -5 -130 42 -145 54 -2 1 -21 96 -41 210 l-37 208 -48 -100 c-26
-55 -58 -123 -70 -152 l-24 -52 -75 25 c-42 14 -75 29 -73 32 2 4 89 186 192
405 104 218 190 397 191 397 2 0 36 -12 76 -26z m-5113 -687 c157 -222 204
-296 208 -326 13 -98 -73 -223 -195 -283 -84 -42 -182 -50 -254 -21 -43 17
-64 40 -272 308 l-226 290 36 31 c20 17 49 39 64 47 l27 16 213 -270 c117
-148 223 -277 236 -286 65 -42 234 63 234 145 0 11 -92 149 -204 308 l-203
288 51 41 c50 42 51 42 67 21 8 -12 107 -150 218 -309z m6439 -91 c89 -81 162
-150 162 -154 -1 -7 -5 -13 -47 -66 l-23 -28 -67 61 c-36 34 -69 58 -73 54 -4
-5 -119 -136 -255 -293 -136 -157 -251 -289 -255 -293 -4 -4 -30 13 -58 38
l-51 46 246 282 c135 155 253 290 261 300 15 16 11 23 -51 85 l-66 67 36 43
c35 43 36 43 57 24 11 -10 94 -85 184 -166z m-3564 -98 c46 -37 130 -116 186
-175 387 -412 511 -856 364 -1303 -71 -215 -229 -467 -421 -671 l-64 -67 76
-46 c42 -25 78 -46 82 -46 3 0 43 36 89 80 100 94 260 204 387 264 444 212
964 231 1563 55 144 -42 374 -129 374 -141 0 -4 -36 -51 -79 -105 -262 -325
-568 -570 -853 -682 -171 -67 -222 -76 -463 -76 -190 0 -234 3 -327 23 -144
30 -272 73 -397 132 -57 28 -105 50 -107 50 -8 0 -69 -132 -111 -240 -171
-442 -257 -973 -275 -1698 l-3 -104 35 5 c19 3 60 12 91 21 l56 17 6 142 c17
397 135 730 335 948 314 342 941 438 1682 258 130 -32 380 -112 463 -148 l47
-20 -52 -88 c-332 -566 -719 -1019 -1063 -1246 -91 -60 -327 -179 -465 -236
-243 -98 -426 -148 -652 -176 -36 -5 -48 -10 -48 -23 1 -49 -42 -1080 -46
-1099 -4 -22 -9 -23 -104 -23 l-100 0 0 546 0 546 -32 -6 c-18 -3 -63 -8 -100
-12 l-68 -7 -2 -411 c-2 -226 -1 -534 1 -683 l4 -273 -102 0 -101 0 0 408 c0
224 -3 531 -7 683 l-6 277 -64 6 c-35 4 -77 9 -93 13 l-30 5 -2 -543 -3 -544
-102 -3 -101 -3 -6 83 c-3 46 -15 301 -26 567 -11 267 -22 486 -24 488 -1 2
-41 8 -87 13 -285 35 -721 196 -1024 378 -341 205 -719 629 -1067 1201 -48 80
-88 150 -88 157 0 7 55 32 123 57 217 80 454 140 702 179 187 29 540 31 685 5
378 -69 606 -204 774 -455 147 -222 236 -547 236 -866 l0 -94 78 -21 c121 -33
114 -38 108 82 -3 56 -8 172 -11 257 -18 493 -97 950 -232 1344 -46 134 -122
318 -138 334 -2 2 -46 -16 -97 -41 -113 -56 -268 -108 -403 -137 -142 -31
-445 -39 -567 -16 -294 56 -581 223 -870 508 -96 96 -222 239 -276 316 l-24
32 58 26 c235 104 609 198 889 224 536 50 1039 -107 1377 -428 l90 -86 42 23
c22 14 58 35 79 48 l38 24 -61 66 c-253 277 -413 564 -464 833 -20 104 -20
295 -1 397 45 235 171 481 357 693 105 119 317 306 339 298 5 -2 46 -33 93
-70z m-4072 -425 c21 -20 38 -41 38 -45 0 -5 -25 -32 -55 -61 l-54 -52 270
-289 270 -289 -43 -44 c-23 -23 -47 -43 -53 -43 -5 0 -131 130 -279 290 l-269
289 -67 -59 c-37 -33 -72 -60 -77 -60 -5 0 -26 17 -46 38 l-37 38 177 161 c98
89 180 162 183 162 2 1 21 -16 42 -36z m8477 -407 l53 -54 -262 -427 -263
-427 -48 48 -48 48 21 35 c12 20 48 75 80 123 32 48 58 92 58 98 0 8 -158 213
-210 273 -5 5 -76 -10 -159 -32 l-150 -41 -43 46 c-24 25 -44 49 -46 53 -2 6
925 308 953 310 6 1 35 -23 64 -53z m-8897 -832 c200 -130 369 -243 377 -250
12 -11 9 -20 -19 -63 -17 -28 -36 -51 -42 -51 -10 0 -746 478 -753 489 -4 7
61 111 70 111 2 0 167 -106 367 -236z m9523 -309 c22 -38 33 -70 29 -77 -4 -7
-111 -152 -236 -322 -126 -169 -228 -310 -226 -312 2 -1 134 51 293 117 160
66 300 122 312 125 19 5 26 -2 50 -50 15 -30 24 -58 21 -61 -5 -6 -665 -285
-789 -335 l-47 -19 -30 75 -31 75 239 332 c131 182 238 333 236 334 -1 1 -141
-56 -311 -127 -170 -72 -313 -130 -316 -130 -4 0 -17 28 -30 62 -19 52 -21 63
-8 71 13 8 787 304 801 306 4 1 23 -28 43 -64z m-10143 -432 c16 -3 32 -11 34
-17 2 -6 -7 -46 -20 -89 -13 -42 -21 -79 -17 -81 3 -2 173 -56 376 -121 204
-65 372 -120 374 -121 1 -2 -7 -32 -18 -67 l-22 -64 -367 119 c-202 65 -373
119 -381 121 -10 1 -24 -26 -44 -83 -17 -47 -31 -86 -32 -88 -1 -1 -27 6 -58
15 l-55 18 76 238 c74 232 77 238 100 232 14 -3 38 -9 54 -12z m10453 -1268
c4 -36 5 -68 3 -70 -4 -4 -849 -85 -887 -85 -16 0 -19 10 -23 63 -3 34 -3 64
-1 67 2 2 203 23 446 46 243 23 445 42 449 43 3 0 10 -28 13 -64z m-10535
-123 c0 -67 0 -68 -35 -86 -36 -20 -75 -84 -75 -124 0 -33 20 -69 47 -83 65
-35 203 7 203 61 0 38 71 158 120 204 123 115 271 125 384 25 87 -77 128 -218
92 -314 -32 -83 -137 -152 -258 -169 l-48 -7 0 65 c0 62 1 66 23 66 35 1 102
35 125 65 33 42 31 123 -4 165 -51 60 -130 77 -200 44 -39 -19 -62 -52 -100
-149 -39 -98 -70 -142 -123 -173 -41 -24 -56 -27 -143 -27 -91 0 -99 2 -139
30 -67 47 -103 113 -107 196 -6 97 22 161 95 216 26 20 114 59 141 63 1 0 2
-30 2 -68z m10039 -916 l422 -249 -3 -80 -3 -81 -489 -89 c-268 -48 -489 -87
-490 -85 -1 2 0 33 2 69 l4 65 146 22 c80 12 149 25 152 29 4 5 17 73 29 153
13 80 25 157 28 171 4 24 -5 32 -124 109 -70 45 -130 84 -131 85 -2 2 -1 33 3
70 5 44 11 65 20 63 6 -2 202 -115 434 -252z m-9077 -446 l22 -71 -284 -285
c-157 -157 -276 -283 -265 -280 80 22 640 154 643 152 2 -2 11 -31 22 -65 l18
-61 -36 -9 c-193 -51 -845 -211 -848 -208 -3 2 -12 38 -21 81 l-17 76 285 287
c156 157 279 288 274 290 -6 2 -154 -33 -330 -76 -176 -44 -321 -78 -322 -77
-3 2 -31 136 -29 136 424 92 835 178 848 179 12 1 23 -18 40 -69z m8650 -936
c211 -108 387 -200 391 -204 4 -4 -4 -38 -18 -77 l-26 -70 -107 -11 c-59 -6
-236 -23 -394 -39 -159 -15 -288 -30 -288 -33 0 -3 133 -68 296 -145 162 -76
297 -142 300 -146 7 -12 -38 -119 -50 -119 -9 0 -802 367 -816 377 -2 2 12 36
32 76 l35 72 394 43 c217 24 401 46 409 48 8 3 -126 71 -297 151 l-311 146 31
63 c17 35 32 64 34 64 1 0 174 -88 385 -196z m-8064 -404 c17 -27 32 -53 32
-57 0 -5 -177 -110 -392 -235 -305 -177 -395 -225 -404 -215 -6 6 -22 32 -36
57 l-26 45 386 227 c213 124 392 227 397 227 6 0 25 -22 43 -49z m1357 -380
c174 -42 315 -60 466 -60 136 0 137 0 439 66 91 20 144 26 255 26 221 1 298
-22 644 -197 226 -114 279 -134 361 -142 91 -9 167 17 413 142 125 64 274 131
331 150 201 68 381 67 670 -2 267 -64 508 -57 826 23 74 18 137 30 141 26 9
-10 121 -403 117 -408 -17 -17 -365 -70 -553 -84 -159 -12 -271 -7 -430 21
-253 43 -569 50 -740 15 -167 -34 -222 -65 -409 -230 -232 -207 -320 -240
-453 -172 -65 33 -108 66 -238 181 -124 110 -176 148 -242 177 -175 77 -557
88 -900 26 -147 -26 -397 -28 -585 -4 -124 16 -387 61 -393 68 -3 3 28 115
101 367 13 47 18 52 37 47 12 -4 76 -20 142 -36z m-21 -1151 c168 -107 217
-167 218 -263 1 -108 -68 -192 -166 -203 l-45 -6 25 -33 c52 -68 50 -162 -7
-248 -61 -92 -194 -122 -340 -76 -71 22 -170 77 -211 118 l-27 27 227 367
c125 202 232 368 237 368 6 0 46 -23 89 -51z m4507 -109 c47 -13 124 -81 151
-134 46 -89 17 -227 -66 -309 l-36 -36 133 -72 c143 -77 197 -109 197 -114 0
-5 -122 -75 -132 -75 -5 0 -88 41 -184 91 -96 50 -174 88 -174 84 0 -4 32 -67
71 -141 39 -75 70 -136 68 -138 -19 -16 -115 -76 -121 -76 -5 0 -93 171 -198
380 l-190 379 61 42 c155 105 311 149 420 119z m-3530 -310 c163 -31 293 -145
350 -306 17 -48 20 -77 17 -160 -3 -93 -6 -107 -40 -175 -20 -41 -56 -94 -79
-118 -265 -275 -732 -123 -779 254 -38 304 233 561 531 505z m2524 -62 c111
-28 236 -132 289 -240 58 -120 58 -270 -1 -395 -38 -81 -134 -175 -220 -216
-65 -30 -74 -32 -188 -32 -118 0 -121 1 -195 37 -121 59 -212 168 -244 293
-40 151 1 316 107 424 124 128 280 173 452 129z m-1253 -119 c79 -17 151 -54
214 -111 48 -44 114 -137 114 -160 0 -5 -37 -8 -82 -8 l-81 0 -34 39 c-18 22
-59 52 -91 68 -47 23 -70 28 -132 28 -117 -1 -209 -55 -265 -156 -27 -49 -30
-63 -30 -144 0 -74 4 -97 23 -132 52 -99 139 -159 244 -170 102 -10 220 44
275 126 41 61 41 61 -152 61 l-175 0 0 60 0 60 269 0 270 0 -5 -37 c-17 -124
-52 -202 -130 -283 -218 -229 -590 -168 -732 119 -37 74 -37 76 -37 196 0 120
0 122 38 197 93 189 297 289 499 247z"/>
<path d="M5660 11210 l0 -160 84 0 c139 0 196 33 217 125 9 42 9 61 -2 95 -24
74 -80 99 -221 100 l-78 0 0 -160z"/>
<path d="M8183 10678 c-29 -73 -53 -140 -55 -148 -2 -10 18 -25 57 -44 81 -39
185 -47 233 -17 75 48 93 134 43 213 -24 38 -43 53 -104 82 -129 61 -115 67
-174 -86z"/>
<path d="M5860 9588 c-103 -129 -173 -265 -212 -408 -33 -124 -31 -316 5 -451
43 -164 149 -386 236 -498 l19 -25 55 85 c291 448 300 881 27 1248 -84 113
-81 112 -130 49z"/>
<path d="M3953 7970 c-150 -8 -193 -15 -193 -29 0 -18 104 -123 166 -167 128
-91 316 -160 509 -185 110 -14 352 -6 450 15 39 9 102 25 140 37 l70 21 -49
45 c-59 53 -173 122 -271 162 -196 82 -489 118 -822 101z"/>
<path d="M7530 7970 c-212 -14 -360 -45 -514 -110 -83 -35 -234 -130 -274
-173 l-23 -24 68 -21 c121 -38 215 -54 354 -59 243 -10 434 28 629 124 101 50
126 68 205 146 86 85 89 90 67 98 -20 8 -357 31 -387 27 -5 0 -62 -4 -125 -8z"/>
<path d="M5793 7608 l-111 -90 68 -141 c69 -145 132 -304 145 -367 7 -33 10
-28 50 85 32 92 154 373 181 417 3 5 -176 159 -212 180 -5 4 -60 -34 -121 -84z"/>
<path d="M3741 6439 c-92 -10 -263 -44 -287 -57 -33 -18 188 -239 396 -395
355 -266 741 -448 1117 -526 103 -21 253 -41 253 -33 0 13 -116 232 -164 310
-122 196 -287 388 -426 494 -220 168 -542 243 -889 207z"/>
<path d="M7725 6439 c-177 -19 -369 -87 -506 -180 -136 -92 -299 -271 -433
-475 -55 -85 -196 -340 -196 -356 0 -16 286 34 435 77 388 113 847 375 1154
661 96 90 195 204 184 215 -12 12 -196 47 -312 59 -117 11 -209 11 -326 -1z"/>
<path d="M10075 9065 c-108 -33 -169 -57 -167 -64 3 -16 162 -201 172 -201 7
0 190 304 190 315 0 9 -23 3 -195 -50z"/>
<path d="M10760 5243 c-1 -5 -9 -66 -19 -138 -10 -71 -18 -131 -17 -132 1 -2
87 14 191 34 169 32 186 37 169 50 -28 21 -312 193 -319 193 -3 0 -5 -3 -5 -7z"/>
<path d="M3580 1819 l-63 -102 24 -18 c33 -26 122 -51 152 -44 72 19 113 130
66 182 -27 29 -98 83 -110 83 -4 0 -35 -46 -69 -101z"/>
<path d="M3393 1497 l-83 -132 28 -22 c33 -28 104 -53 146 -53 46 1 110 33
136 71 18 24 24 47 25 85 0 48 -3 57 -39 92 -21 22 -59 51 -85 65 l-46 26 -82
-132z"/>
<path d="M7984 1790 c-44 -22 -85 -44 -93 -49 -11 -7 0 -32 54 -122 38 -63 74
-122 80 -131 11 -17 15 -16 62 7 71 36 128 88 147 136 41 101 -27 199 -138
199 -20 0 -66 -17 -112 -40z"/>
<path d="M4519 1467 c-142 -40 -228 -148 -229 -288 0 -85 22 -147 72 -204 145
-165 401 -129 499 70 29 60 31 71 27 142 -3 53 -12 92 -26 120 -64 123 -218
195 -343 160z"/>
<path d="M6960 1401 c-159 -65 -233 -259 -157 -413 30 -61 74 -105 140 -140
35 -19 58 -23 132 -23 81 0 95 3 144 30 101 56 155 147 155 265 0 125 -54 214
-166 270 -52 25 -72 30 -132 29 -44 0 -88 -7 -116 -18z"/>
</g>
</svg>
