<?xml version="1.0" standalone="no"?>
<!DOCTYPE svg PUBLIC "-//W3C//DTD SVG 20010904//EN"
 "http://www.w3.org/TR/2001/REC-SVG-20010904/DTD/svg10.dtd">
<svg version="1.0" xmlns="http://www.w3.org/2000/svg"
 width="1667.000000pt" height="936.000000pt" viewBox="0 0 1667.000000 936.000000"
 preserveAspectRatio="xMidYMid meet">

<g transform="translate(0.000000,936.000000) scale(0.100000,-0.100000)"
fill="#000000" stroke="none">
<path d="M4080 8247 c-3 -3 -27 -7 -53 -10 -32 -4 -55 -13 -67 -28 -11 -11
-24 -18 -30 -14 -5 3 -13 -1 -16 -9 -3 -9 -12 -16 -20 -16 -8 0 -14 -4 -14 -9
0 -5 -9 -11 -19 -14 -11 -3 -22 -17 -26 -36 -3 -17 -12 -34 -18 -38 -16 -10
-37 -58 -37 -83 0 -11 -4 -20 -10 -20 -15 0 -12 -57 3 -63 10 -4 10 -6 0 -6
-14 -1 -18 -51 -4 -51 5 0 11 -18 15 -39 3 -22 12 -46 19 -53 6 -7 21 -30 32
-50 11 -21 25 -38 32 -38 6 0 15 -9 18 -20 3 -11 13 -20 21 -20 8 0 14 -3 14
-7 0 -13 52 -33 98 -40 23 -3 42 -10 42 -14 0 -5 27 -9 61 -9 51 0 60 3 55 16
-3 8 -2 12 4 9 14 -9 90 14 96 29 3 8 26 20 51 27 43 12 47 11 64 -9 9 -12 22
-22 27 -22 5 0 12 -7 16 -15 3 -9 12 -12 23 -9 13 4 15 3 5 -4 -11 -7 -8 -15
13 -37 22 -21 30 -24 36 -13 7 10 9 10 10 -2 1 -8 1 -23 0 -32 -1 -9 7 -23 18
-30 12 -7 21 -16 21 -21 0 -4 11 -19 24 -32 14 -13 27 -34 31 -45 3 -11 11
-20 16 -20 5 0 9 -7 9 -16 0 -9 5 -12 12 -8 7 5 8 3 3 -6 -5 -8 -2 -17 7 -24
8 -6 23 -32 33 -58 10 -27 21 -48 24 -48 4 0 13 -16 21 -35 8 -19 17 -35 21
-35 4 0 11 -17 16 -37 9 -36 11 -38 48 -36 21 2 41 7 44 12 3 5 27 12 54 16
30 5 47 12 47 21 0 8 7 14 15 14 8 0 15 -4 15 -10 0 -5 7 -10 15 -10 8 0 15 5
15 10 0 6 11 10 25 10 20 0 25 5 25 25 0 13 -6 28 -13 32 -7 4 -19 27 -25 51
-7 23 -16 42 -21 42 -4 0 -13 18 -20 40 -6 22 -15 40 -19 40 -5 0 -16 20 -26
45 -11 25 -23 45 -28 45 -4 0 -8 6 -8 13 0 7 -11 23 -25 35 -14 12 -25 31 -25
42 0 11 -7 20 -15 20 -8 0 -15 7 -15 15 0 19 -29 67 -47 78 -7 4 -13 15 -13
22 0 8 -9 15 -21 15 -11 0 -17 4 -14 10 3 5 -5 20 -18 32 -13 13 -27 31 -30
41 -4 11 -16 21 -27 24 -11 3 -20 11 -20 19 0 8 -6 11 -15 8 -10 -4 -15 0 -15
15 0 14 -8 23 -25 27 -14 3 -25 12 -25 20 0 8 -6 14 -13 14 -7 0 -27 16 -46
35 -18 19 -39 35 -46 35 -8 0 -18 22 -26 55 -12 54 -22 67 -33 43 -3 -7 -3 -3
0 10 3 12 1 22 -4 22 -5 0 -12 14 -15 30 -4 17 -13 30 -21 30 -7 0 -17 7 -20
16 -4 10 -14 14 -25 11 -14 -3 -18 -1 -14 9 3 9 -6 18 -26 25 -17 6 -31 14
-31 19 0 4 -24 10 -52 14 -29 4 -67 9 -83 12 -17 3 -32 3 -35 1z m-125 -87 c3
-6 -1 -7 -9 -4 -18 7 -21 14 -7 14 6 0 13 -4 16 -10z m0 -480 c-3 -5 -12 -10
-18 -10 -7 0 -6 4 3 10 19 12 23 12 15 0z m385 -20 c0 -5 -4 -10 -10 -10 -5 0
-10 5 -10 10 0 6 5 10 10 10 6 0 10 -4 10 -10z m470 -90 c0 -5 -4 -10 -10 -10
-5 0 -10 5 -10 10 0 6 5 10 10 10 6 0 10 -4 10 -10z"/>
<path d="M3330 7736 c0 -8 -8 -17 -17 -20 -10 -3 -27 -24 -37 -46 -11 -22 -23
-40 -27 -40 -4 0 -13 -16 -20 -35 -7 -19 -19 -35 -25 -35 -7 0 -16 -9 -19 -20
-3 -11 -10 -20 -15 -20 -10 0 -33 -59 -32 -80 1 -10 0 -11 -4 -2 -10 22 -21
13 -33 -28 -6 -22 -16 -40 -20 -40 -5 0 -15 -20 -22 -45 -7 -25 -18 -45 -24
-45 -6 0 -16 -20 -23 -45 -7 -25 -16 -45 -22 -45 -5 0 -12 -16 -16 -35 -3 -19
-12 -39 -20 -43 -8 -4 -16 -21 -18 -37 -5 -37 -17 -68 -29 -77 -6 -4 -5 -12 4
-21 14 -14 54 -21 199 -33 41 -4 78 -12 82 -18 5 -7 8 -4 8 7 0 9 4 17 8 17 5
0 15 18 22 40 7 22 17 40 22 40 4 0 8 5 8 12 0 18 33 88 42 88 4 0 8 13 8 28
0 16 8 37 18 48 9 10 24 33 32 49 8 17 21 35 29 41 8 6 11 18 8 28 -4 10 -3
15 3 11 6 -3 10 -2 10 3 0 5 9 19 20 32 12 13 18 30 15 37 -2 8 0 11 5 8 6 -3
10 3 10 13 0 12 9 22 23 27 13 4 17 8 10 12 -7 2 -13 9 -13 13 0 5 -12 21 -26
35 -21 21 -29 24 -36 13 -7 -10 -8 -9 -4 5 5 17 -22 89 -36 95 -5 2 -8 13 -9
25 0 21 -1 21 -10 2 -8 -17 -9 -16 -4 7 6 32 -4 88 -16 88 -5 0 -9 -6 -9 -14z
m-150 -266 c0 -5 -4 -10 -10 -10 -5 0 -10 5 -10 10 0 6 5 10 10 10 6 0 10 -4
10 -10z m80 -325 c0 -8 -4 -15 -10 -15 -5 0 -10 7 -10 15 0 8 5 15 10 15 6 0
10 -7 10 -15z"/>
<path d="M7916 7453 c-25 -7 -91 -64 -133 -116 -31 -39 -33 -98 -33 -1134 0
-1050 3 -1134 36 -1147 8 -3 14 -10 14 -16 0 -31 88 -90 135 -90 13 0 26 -6
28 -12 4 -10 8 -9 16 2 10 13 12 13 21 0 6 -10 10 -11 10 -2 0 6 11 12 24 12
67 0 134 48 155 112 7 20 17 38 24 41 16 5 18 2184 2 2195 -5 4 -18 24 -27 45
-10 20 -22 37 -28 37 -5 0 -10 6 -10 14 0 8 -9 18 -20 21 -11 3 -27 13 -36 22
-16 17 -139 28 -178 16z"/>
<path d="M8758 7453 c-16 -2 -28 -8 -28 -13 0 -5 -8 -11 -19 -15 -26 -8 -74
-55 -88 -88 -7 -15 -13 -48 -13 -73 0 -52 19 -134 30 -134 5 0 14 -17 21 -37
6 -20 20 -46 30 -57 11 -11 19 -26 19 -33 0 -7 3 -13 8 -13 4 0 15 -18 25 -40
9 -22 21 -40 26 -40 5 0 14 -13 20 -30 5 -16 15 -30 20 -30 6 0 11 -6 11 -13
0 -7 8 -22 19 -33 10 -11 27 -38 37 -60 20 -43 23 -47 59 -88 14 -16 25 -35
25 -43 0 -7 6 -16 14 -19 8 -3 22 -23 30 -45 9 -21 20 -39 24 -39 5 0 14 -16
22 -35 8 -19 18 -35 22 -35 5 0 14 -13 19 -30 6 -16 15 -30 19 -30 4 0 15 -18
24 -40 9 -22 20 -40 26 -40 6 0 15 -11 20 -25 5 -14 13 -25 18 -25 4 0 14 -16
22 -35 8 -19 17 -35 21 -35 3 0 12 -13 19 -30 7 -16 16 -30 20 -30 4 0 13 -15
20 -32 7 -18 20 -39 29 -46 14 -11 17 -68 21 -478 4 -326 8 -467 16 -472 6 -4
14 -16 18 -28 18 -59 99 -114 168 -114 14 0 29 -6 31 -12 4 -9 8 -10 14 -3 4
6 34 16 66 22 62 13 108 48 122 93 4 14 12 28 17 31 22 14 28 109 28 517 0
260 4 432 9 432 5 0 12 8 15 18 3 9 17 30 31 46 14 16 25 37 25 47 0 10 9 23
20 29 11 6 20 17 20 25 0 7 6 20 14 27 7 8 21 29 31 48 17 33 26 46 56 79 9
10 22 32 30 49 8 18 17 32 21 32 4 0 15 17 25 38 9 20 23 43 29 50 7 6 16 21
19 32 3 11 10 20 14 20 5 0 14 14 21 30 7 17 16 30 21 30 5 0 16 15 25 33 9
17 20 34 23 37 3 3 13 19 21 35 8 17 21 34 27 38 7 4 13 14 13 21 0 7 11 26
25 42 14 16 25 35 25 42 0 6 4 12 9 12 5 0 16 16 25 35 9 19 21 35 26 35 6 0
10 6 10 13 0 6 11 25 25 41 14 16 25 35 25 42 0 7 6 19 13 26 15 16 47 97 47
121 0 9 5 17 10 17 6 0 10 18 10 40 0 22 -4 40 -8 40 -5 0 -15 18 -22 40 -7
22 -24 47 -38 57 -14 10 -34 27 -46 38 -18 17 -35 20 -106 20 -75 0 -88 -3
-107 -22 -13 -13 -27 -23 -31 -23 -5 0 -15 -12 -23 -27 -8 -16 -22 -34 -31
-41 -10 -7 -18 -20 -18 -28 0 -8 -4 -14 -10 -14 -5 0 -17 -17 -27 -37 -9 -21
-25 -47 -35 -57 -10 -11 -18 -26 -18 -33 0 -7 -4 -13 -8 -13 -5 0 -14 -16 -22
-35 -8 -19 -17 -35 -20 -35 -3 0 -14 -16 -23 -35 -9 -19 -21 -35 -26 -35 -5 0
-12 -14 -16 -31 -4 -17 -13 -33 -21 -36 -8 -3 -14 -10 -14 -17 0 -6 -11 -24
-25 -40 -13 -15 -30 -45 -36 -65 -7 -20 -20 -42 -31 -49 -10 -7 -18 -20 -18
-28 0 -8 -4 -14 -9 -14 -5 0 -14 -13 -20 -30 -5 -16 -14 -30 -20 -30 -5 0 -15
-16 -22 -35 -7 -19 -16 -35 -21 -35 -4 0 -15 -17 -25 -37 -9 -21 -25 -47 -35
-57 -10 -11 -18 -26 -18 -33 0 -7 -4 -13 -10 -13 -5 0 -10 -7 -10 -15 0 -9 -9
-15 -22 -15 -22 0 -48 36 -48 67 0 7 -5 13 -10 13 -6 0 -15 11 -20 25 -5 14
-13 25 -18 25 -4 0 -14 16 -22 35 -8 19 -17 35 -20 35 -4 0 -15 18 -25 40 -10
22 -21 40 -26 40 -4 0 -12 14 -18 30 -5 17 -14 30 -18 30 -5 0 -15 16 -22 35
-7 19 -16 35 -20 35 -4 0 -16 20 -27 45 -10 25 -21 45 -24 45 -4 0 -12 11 -18
25 -12 26 -22 40 -54 75 -10 11 -20 31 -24 45 -3 14 -11 29 -18 33 -6 4 -20
26 -30 50 -11 23 -22 42 -25 42 -3 0 -13 15 -20 33 -8 17 -23 38 -33 45 -10 7
-18 19 -18 26 0 8 -7 16 -15 20 -8 3 -15 11 -15 17 0 15 -62 79 -77 79 -6 0
-13 5 -15 11 -4 12 -115 20 -160 12z"/>
<path d="M11545 7453 c-27 -2 -52 -8 -55 -12 -3 -3 -39 -12 -80 -19 -41 -7
-77 -16 -80 -21 -3 -4 -22 -11 -42 -15 -21 -4 -43 -12 -50 -19 -7 -7 -35 -21
-63 -31 -27 -11 -54 -25 -58 -33 -4 -7 -15 -13 -23 -13 -8 0 -45 -31 -82 -70
-83 -86 -93 -98 -112 -135 -8 -17 -20 -35 -26 -42 -7 -7 -15 -29 -19 -50 -4
-21 -12 -41 -18 -45 -16 -10 -17 -336 -1 -346 6 -4 14 -24 18 -44 4 -21 12
-43 19 -50 7 -7 19 -26 27 -43 8 -16 30 -44 48 -61 17 -17 32 -37 32 -43 0 -6
11 -16 24 -21 13 -5 27 -18 31 -29 3 -12 13 -21 21 -21 8 0 14 -4 14 -10 0 -5
7 -10 15 -10 8 0 23 -8 33 -18 10 -10 40 -26 67 -37 28 -10 56 -24 62 -31 7
-7 31 -15 53 -19 22 -4 40 -11 40 -15 0 -5 25 -14 55 -21 30 -7 55 -15 55 -19
0 -4 46 -15 103 -25 56 -10 104 -22 107 -25 3 -4 35 -13 73 -20 37 -7 67 -15
67 -19 0 -4 30 -13 68 -21 37 -7 69 -16 72 -19 3 -3 31 -15 63 -25 31 -11 57
-23 57 -28 0 -4 6 -8 14 -8 17 0 116 -91 116 -107 0 -6 8 -19 17 -29 26 -25
26 -222 1 -248 -10 -10 -18 -24 -18 -31 0 -18 -100 -125 -117 -125 -7 0 -13
-4 -13 -9 0 -5 -20 -14 -45 -20 -25 -6 -45 -15 -45 -20 0 -10 -99 -31 -147
-31 -18 0 -33 -4 -33 -10 0 -6 -32 -10 -75 -10 -43 0 -75 4 -75 10 0 6 -13 10
-30 10 -37 0 -120 22 -120 31 0 4 -13 10 -29 14 -17 3 -45 19 -63 36 -18 16
-39 29 -45 29 -7 0 -13 6 -13 14 0 8 -11 24 -25 37 -13 13 -25 29 -25 36 0 6
-6 18 -13 25 -7 7 -22 36 -32 63 -11 28 -25 56 -32 63 -7 7 -15 28 -19 47 -3
18 -12 36 -20 39 -8 3 -14 12 -14 20 0 9 -9 20 -20 26 -11 6 -20 17 -20 24 0
8 -13 19 -30 26 -16 7 -30 16 -30 21 0 5 -34 9 -75 9 -41 0 -75 -4 -75 -9 0
-5 -10 -13 -22 -17 -28 -8 -78 -54 -78 -71 0 -6 -8 -19 -17 -29 -15 -15 -18
-35 -17 -112 0 -52 5 -97 11 -100 5 -4 18 -34 28 -67 10 -33 21 -62 24 -65 3
-3 13 -18 21 -35 8 -16 23 -36 33 -43 9 -7 17 -17 17 -22 0 -18 166 -175 205
-195 22 -11 42 -23 45 -26 3 -3 21 -11 40 -19 19 -8 41 -20 47 -26 7 -7 31
-15 53 -19 22 -4 40 -10 40 -15 0 -12 104 -29 223 -36 59 -4 107 -11 107 -15
0 -15 128 -11 133 4 4 9 8 8 16 -3 8 -10 13 -12 19 -4 4 6 43 14 87 18 106 9
215 27 215 36 0 3 23 13 50 20 28 7 50 17 50 20 0 4 18 13 40 20 22 7 40 16
40 19 0 3 19 15 43 26 23 11 46 25 50 32 4 7 13 13 20 13 7 0 32 23 57 51 25
28 55 61 68 74 12 12 22 27 22 33 0 6 6 15 13 19 7 4 21 31 32 58 10 28 21 52
24 55 11 9 31 76 31 102 0 15 5 28 12 30 15 5 17 296 2 306 -6 4 -16 33 -23
65 -7 31 -16 57 -21 57 -4 0 -15 19 -23 43 -15 44 -142 187 -166 187 -6 0 -14
6 -17 13 -3 8 -20 20 -39 27 -19 8 -35 17 -35 21 0 5 -19 14 -42 21 -24 7 -47
18 -53 24 -5 6 -34 17 -62 24 -29 7 -53 15 -53 19 0 8 -81 31 -110 31 -11 0
-20 4 -20 9 0 5 -31 15 -70 22 -38 7 -70 16 -70 20 0 4 -31 13 -70 20 -38 7
-70 16 -70 21 0 4 -9 8 -20 8 -32 0 -174 31 -180 39 -3 4 -24 13 -47 21 -24 7
-43 17 -43 22 0 4 -7 8 -15 8 -21 0 -57 21 -73 43 -7 9 -20 17 -28 17 -8 0
-14 7 -14 15 0 8 -9 19 -20 25 -10 6 -22 26 -26 45 -3 19 -10 35 -15 35 -5 0
-9 27 -9 60 0 33 4 60 10 60 5 0 13 12 16 28 8 32 89 116 122 126 12 4 22 11
22 16 0 4 24 14 53 20 28 7 55 18 59 24 9 14 327 14 336 0 4 -6 26 -16 50 -22
23 -7 42 -16 42 -20 0 -5 17 -16 38 -25 21 -9 45 -29 53 -44 8 -16 22 -34 32
-41 9 -7 17 -20 17 -28 0 -8 6 -17 14 -20 7 -3 19 -23 26 -45 7 -21 17 -39 22
-39 4 0 8 -6 8 -13 0 -7 9 -23 20 -35 11 -12 20 -25 20 -30 0 -5 15 -26 34
-46 43 -45 114 -64 181 -47 71 18 155 113 155 176 0 14 5 25 10 25 6 0 10 11
10 25 0 14 -3 25 -8 25 -4 0 -13 30 -20 67 -7 37 -16 70 -20 73 -4 3 -14 19
-22 35 -8 17 -21 34 -27 38 -7 4 -13 14 -13 21 0 7 -10 21 -22 32 -13 11 -34
35 -47 52 -13 18 -29 32 -34 32 -6 0 -17 7 -26 15 -9 8 -26 23 -37 33 -12 11
-42 27 -68 37 -25 10 -46 21 -46 25 0 4 -21 13 -47 20 -26 6 -50 16 -54 21 -3
6 -37 15 -75 21 -38 6 -72 16 -75 21 -7 10 -337 18 -424 10z"/>
<path d="M13988 7453 c-16 -2 -28 -9 -28 -14 0 -5 -6 -9 -12 -9 -7 0 -26 -11
-42 -25 -16 -13 -37 -27 -47 -30 -11 -4 -19 -12 -19 -19 0 -7 -11 -22 -25 -34
-13 -12 -27 -33 -31 -47 -3 -14 -10 -25 -14 -25 -4 0 -16 -27 -26 -60 -10 -33
-21 -60 -24 -60 -4 0 -13 -22 -20 -50 -7 -27 -17 -50 -21 -50 -4 0 -13 -25
-20 -55 -7 -30 -16 -55 -20 -55 -4 0 -15 -25 -24 -55 -8 -30 -19 -55 -24 -55
-4 0 -13 -25 -20 -55 -7 -30 -16 -55 -20 -55 -4 0 -13 -22 -20 -50 -7 -27 -16
-50 -19 -50 -4 0 -16 -29 -27 -65 -10 -36 -22 -65 -26 -65 -3 0 -12 -25 -19
-55 -7 -30 -17 -55 -21 -55 -5 0 -14 -19 -21 -42 -7 -24 -17 -48 -24 -55 -6
-6 -17 -39 -24 -72 -7 -34 -16 -61 -20 -61 -4 0 -14 -20 -21 -45 -7 -25 -16
-45 -20 -45 -4 0 -12 -22 -19 -50 -7 -27 -16 -50 -20 -50 -4 0 -13 -21 -19
-46 -7 -26 -18 -52 -25 -59 -7 -7 -18 -38 -25 -69 -7 -31 -16 -56 -20 -56 -4
0 -13 -22 -20 -50 -7 -27 -16 -50 -21 -50 -4 0 -11 -16 -14 -35 -4 -19 -12
-40 -19 -47 -7 -7 -21 -43 -31 -80 -10 -38 -22 -68 -26 -68 -4 0 -14 -24 -20
-52 -7 -29 -18 -56 -24 -60 -7 -5 -11 -44 -11 -103 0 -81 3 -98 18 -106 9 -6
17 -15 17 -21 0 -30 96 -88 148 -88 6 0 12 -4 12 -10 0 -5 11 -10 25 -10 14 0
25 5 25 10 0 6 11 10 25 10 47 0 102 32 116 67 7 18 16 33 20 33 4 0 13 20 20
45 7 25 16 45 20 45 4 0 12 20 18 45 6 25 15 45 20 45 4 0 14 25 21 56 8 31
19 62 25 68 7 6 18 35 25 64 8 29 16 52 20 52 3 0 12 20 19 45 l13 45 508 0
508 0 11 -45 c6 -25 15 -45 20 -45 4 0 14 -25 21 -55 7 -30 17 -55 21 -55 5 0
14 -20 20 -45 6 -25 15 -45 20 -45 5 0 9 -6 9 -14 0 -24 34 -120 46 -134 7 -6
16 -22 20 -34 7 -22 15 -34 47 -69 9 -10 17 -23 17 -28 0 -15 66 -41 104 -41
20 0 36 -4 36 -10 0 -5 7 -10 15 -10 8 0 15 5 15 10 0 6 11 10 25 10 46 0 104
33 120 67 9 18 19 33 23 33 14 0 32 65 32 112 0 52 -20 148 -30 148 -4 0 -13
27 -20 61 -7 33 -18 66 -25 72 -6 7 -17 35 -25 62 -8 28 -20 56 -27 63 -7 7
-15 28 -19 47 -3 19 -10 35 -15 35 -5 0 -16 27 -26 60 -9 33 -20 60 -24 60 -4
0 -13 23 -20 50 -7 28 -16 50 -20 50 -4 0 -12 23 -19 50 -7 28 -16 50 -20 50
-5 0 -14 23 -21 50 -7 28 -16 50 -21 50 -4 0 -15 25 -23 55 -9 30 -20 55 -24
55 -4 0 -14 25 -21 55 -7 30 -17 55 -21 55 -5 0 -14 20 -20 45 -6 25 -15 45
-20 45 -5 0 -9 7 -9 15 0 19 -30 109 -39 115 -4 3 -13 24 -21 48 -7 23 -16 42
-20 42 -3 0 -13 23 -20 50 -7 28 -16 50 -19 50 -3 0 -15 29 -26 65 -10 36 -22
65 -26 65 -4 0 -13 24 -20 52 -6 29 -18 58 -25 66 -7 7 -16 28 -20 47 -3 19
-9 35 -13 35 -4 0 -15 29 -26 65 -10 36 -21 65 -25 65 -4 0 -13 18 -20 40 -7
22 -17 40 -22 40 -4 0 -8 6 -8 13 0 25 -25 65 -51 82 -14 10 -34 30 -44 44
-17 26 -57 51 -81 51 -7 0 -14 5 -16 12 -4 12 -166 21 -220 11z m122 -553 c4
0 13 -27 20 -60 7 -33 16 -60 20 -60 4 0 13 -27 20 -61 7 -33 19 -67 26 -74 7
-7 19 -35 25 -61 7 -27 18 -55 25 -61 7 -7 15 -31 19 -53 4 -22 10 -40 14 -40
4 0 15 -31 26 -70 11 -38 22 -70 25 -70 4 0 12 -25 19 -55 7 -30 16 -55 20
-55 4 0 13 -25 20 -55 7 -30 16 -55 21 -55 4 0 14 -24 20 -52 7 -29 17 -56 23
-60 6 -4 4 -12 -6 -22 -14 -14 -59 -16 -366 -16 -310 0 -351 2 -351 15 0 27
32 145 39 145 4 0 13 28 21 63 7 34 19 68 26 74 7 7 15 31 19 53 4 22 10 40
14 40 4 0 14 25 21 55 7 30 17 55 22 55 4 0 8 6 8 14 0 19 33 120 41 126 4 3
12 31 19 63 7 31 16 57 20 57 3 0 13 23 20 50 7 28 17 50 20 50 4 0 13 27 20
60 7 32 20 68 29 79 16 20 16 20 25 1 5 -11 12 -20 16 -20z"/>
<path d="M5473 7023 c-29 -2 -53 -7 -53 -12 0 -4 -54 -13 -120 -21 -66 -7
-120 -16 -120 -20 0 -4 -38 -13 -85 -20 -47 -7 -85 -16 -85 -20 0 -3 -43 -14
-95 -25 -52 -10 -95 -21 -95 -25 0 -3 -29 -12 -65 -19 -36 -7 -65 -17 -65 -21
0 -4 -27 -13 -60 -19 -33 -7 -60 -15 -60 -19 0 -8 -106 -42 -128 -42 -7 0 -12
-4 -12 -9 0 -5 -16 -12 -35 -15 -19 -4 -40 -13 -47 -20 -8 -7 -37 -19 -66 -25
-28 -7 -52 -17 -52 -21 0 -5 -25 -16 -55 -25 -30 -8 -55 -19 -55 -23 0 -5 -22
-14 -50 -21 -27 -7 -50 -17 -50 -21 0 -5 -16 -14 -35 -20 -19 -6 -35 -15 -35
-20 0 -4 -23 -13 -50 -20 -28 -7 -56 -17 -63 -24 -7 -7 -27 -18 -44 -25 -18
-7 -33 -17 -33 -21 0 -5 -16 -14 -35 -20 -19 -6 -35 -15 -35 -19 0 -4 -18 -13
-40 -20 -22 -6 -40 -16 -40 -21 0 -4 -20 -16 -45 -26 -25 -9 -45 -20 -45 -25
0 -4 -14 -10 -31 -14 -17 -4 -33 -13 -36 -21 -3 -8 -11 -14 -19 -14 -8 0 -22
-8 -32 -18 -16 -16 -82 -52 -96 -52 -3 0 -15 -8 -25 -17 -39 -36 -52 -44 -83
-55 -17 -6 -39 -18 -50 -27 -10 -9 -27 -23 -37 -33 -10 -9 -28 -19 -39 -22
-11 -4 -29 -14 -40 -24 -11 -9 -29 -25 -41 -34 -11 -9 -34 -24 -52 -34 -36
-18 -51 -29 -84 -61 -12 -13 -27 -23 -33 -23 -6 0 -16 -9 -22 -20 -6 -11 -17
-20 -26 -20 -8 0 -17 -7 -20 -15 -4 -8 -11 -15 -18 -15 -10 0 -46 -28 -98 -74
-10 -9 -22 -16 -28 -16 -5 0 -17 -11 -26 -25 -9 -14 -22 -25 -29 -25 -7 0 -26
-13 -42 -30 -15 -16 -31 -30 -36 -30 -4 0 -22 -16 -40 -35 -17 -19 -36 -35
-41 -35 -5 0 -42 -34 -83 -75 -40 -41 -78 -75 -83 -75 -6 0 -27 -18 -48 -41
-45 -50 -91 -97 -123 -125 -13 -11 -46 -47 -74 -78 -27 -32 -60 -67 -72 -79
-13 -11 -23 -25 -23 -31 0 -5 -19 -28 -42 -51 -45 -44 -90 -100 -97 -119 -2
-6 -12 -17 -23 -24 -10 -7 -18 -17 -18 -23 0 -5 -8 -18 -17 -28 -33 -36 -43
-50 -55 -76 -6 -14 -15 -25 -20 -25 -4 0 -16 -16 -25 -35 -9 -19 -20 -35 -24
-35 -3 0 -12 -13 -19 -30 -7 -16 -16 -30 -20 -30 -5 0 -14 -16 -20 -35 -6 -19
-15 -35 -20 -35 -5 0 -16 -20 -26 -45 -9 -25 -20 -45 -24 -45 -4 0 -12 -18
-19 -40 -6 -22 -15 -40 -20 -40 -4 0 -14 -18 -21 -40 -7 -22 -16 -40 -21 -40
-4 0 -15 -31 -24 -70 -9 -38 -20 -70 -24 -70 -9 0 -31 -91 -31 -125 0 -13 -4
-25 -9 -27 -13 -4 -31 -151 -31 -245 0 -84 18 -226 30 -233 4 -3 11 -22 15
-43 4 -21 13 -43 19 -50 7 -7 20 -34 30 -62 11 -27 25 -54 33 -58 7 -4 13 -12
13 -18 0 -5 36 -45 80 -87 91 -89 95 -92 135 -112 17 -8 33 -20 37 -26 4 -7
28 -18 53 -25 25 -7 45 -16 45 -20 0 -4 20 -12 45 -18 25 -6 45 -15 45 -20 0
-6 34 -15 75 -22 41 -7 75 -16 75 -20 0 -14 202 -31 379 -31 181 -1 461 19
461 32 0 4 45 13 100 20 55 7 100 17 100 21 0 4 38 12 85 19 47 7 85 15 85 20
0 4 37 15 82 24 45 9 84 20 87 25 3 4 36 14 74 21 37 7 67 16 67 20 0 4 23 13
50 20 28 7 50 15 50 19 0 4 25 14 55 21 30 7 55 17 55 22 0 4 7 8 15 8 19 0
109 30 115 39 3 4 25 13 50 21 25 8 51 20 58 27 7 7 24 13 37 13 13 0 30 6 37
13 7 7 35 21 63 32 27 10 56 25 63 32 7 7 22 13 32 13 10 0 25 6 32 13 7 7 32
19 56 26 23 8 42 18 42 22 0 4 23 15 50 24 28 9 50 20 50 24 0 4 16 13 35 21
19 8 35 17 35 21 0 4 16 13 35 19 19 6 35 15 35 20 0 5 21 16 48 26 26 10 53
24 60 30 6 7 21 16 32 19 11 3 20 10 20 14 0 4 16 13 35 20 19 7 35 16 35 21
0 5 9 12 20 15 11 3 26 12 32 19 7 6 30 20 51 29 20 10 37 22 37 27 0 6 6 10
13 10 7 0 22 8 33 18 10 10 34 25 52 32 17 8 32 18 32 21 0 4 8 9 18 13 24 8
56 29 65 44 4 6 14 12 22 12 8 0 19 9 25 20 6 11 17 20 25 20 8 0 18 6 22 13
4 7 24 21 44 30 20 9 39 24 43 32 3 8 11 15 18 15 8 0 21 8 29 18 22 24 53 48
81 63 13 7 32 21 44 33 12 12 33 30 48 41 15 11 43 35 62 53 20 17 39 32 43
32 5 0 23 16 42 35 19 19 37 35 42 35 15 0 497 471 497 486 0 5 18 25 40 44
22 19 40 40 40 45 0 6 16 25 35 42 19 18 35 36 35 40 0 4 14 23 30 42 17 18
30 37 30 41 0 4 11 20 25 36 38 43 41 48 59 83 10 18 25 41 34 51 32 35 42 49
54 75 8 17 19 25 37 25 36 0 101 19 101 29 0 5 11 12 25 15 14 4 34 15 44 25
9 9 25 21 35 24 10 4 20 16 23 27 3 11 10 20 15 20 5 0 14 14 19 30 6 17 14
30 19 30 14 0 30 87 30 161 0 78 -16 149 -37 162 -7 4 -13 14 -13 22 0 26 -96
111 -137 121 -13 4 -23 10 -23 15 0 13 -70 29 -132 29 -66 0 -156 -17 -175
-34 -7 -6 -25 -20 -39 -31 -46 -34 -92 -83 -99 -104 -3 -12 -10 -21 -15 -21
-5 0 -14 -25 -21 -55 -7 -30 -16 -55 -21 -55 -4 0 -8 -22 -8 -50 0 -27 4 -50
8 -50 4 0 14 -26 20 -57 7 -32 19 -64 27 -71 34 -29 31 -99 -5 -130 -11 -9
-20 -22 -20 -29 0 -6 -6 -16 -14 -20 -7 -4 -21 -24 -31 -43 -10 -19 -31 -47
-46 -63 -16 -15 -29 -31 -29 -37 0 -5 -8 -15 -18 -22 -11 -7 -25 -24 -32 -37
-13 -25 -34 -49 -150 -168 -38 -40 -70 -77 -70 -83 0 -5 -7 -10 -15 -10 -8 0
-15 -6 -15 -12 0 -13 -72 -88 -84 -88 -4 0 -42 -36 -85 -80 -44 -44 -83 -80
-88 -80 -5 0 -25 -18 -44 -40 -19 -22 -39 -40 -44 -40 -6 0 -33 -21 -60 -46
-88 -80 -93 -84 -104 -84 -6 0 -16 -9 -23 -20 -7 -11 -18 -20 -25 -20 -6 0
-18 -8 -25 -18 -7 -11 -24 -25 -38 -32 -14 -7 -29 -19 -33 -26 -4 -8 -14 -14
-22 -14 -8 0 -20 -8 -27 -17 -7 -10 -26 -25 -43 -33 -16 -8 -34 -21 -38 -27
-4 -7 -14 -13 -22 -13 -8 0 -19 -9 -25 -20 -6 -11 -17 -20 -25 -20 -8 0 -19
-8 -24 -18 -5 -10 -25 -24 -45 -32 -20 -7 -36 -17 -36 -22 0 -4 -6 -8 -14 -8
-8 0 -21 -8 -28 -18 -7 -10 -28 -24 -45 -31 -18 -7 -33 -17 -33 -21 0 -4 -20
-15 -45 -26 -25 -10 -45 -21 -45 -25 0 -4 -13 -12 -30 -19 -16 -7 -30 -16 -30
-19 0 -4 -16 -13 -35 -21 -19 -8 -35 -17 -35 -21 0 -4 -20 -15 -45 -26 -25
-10 -45 -21 -45 -25 0 -5 -6 -8 -13 -8 -7 0 -22 -8 -33 -19 -11 -10 -36 -24
-56 -30 -20 -7 -38 -15 -40 -19 -4 -10 -76 -42 -92 -42 -8 0 -16 -6 -19 -14
-3 -8 -19 -17 -36 -21 -17 -4 -31 -10 -31 -14 0 -4 -18 -13 -40 -20 -22 -6
-40 -15 -40 -20 0 -4 -18 -13 -40 -20 -22 -6 -40 -16 -40 -20 0 -5 -26 -16
-57 -26 -32 -10 -60 -21 -63 -24 -3 -4 -24 -13 -47 -21 -24 -7 -43 -16 -43
-20 0 -4 -21 -13 -47 -20 -27 -8 -50 -17 -53 -20 -3 -4 -36 -15 -75 -25 -38
-11 -76 -24 -82 -31 -7 -7 -31 -15 -53 -19 -22 -4 -40 -10 -40 -15 0 -4 -27
-13 -60 -20 -33 -7 -60 -16 -60 -20 0 -3 -43 -15 -95 -25 -52 -11 -95 -22 -95
-25 0 -4 -38 -12 -85 -19 -47 -7 -85 -16 -85 -21 0 -4 -48 -13 -107 -20 -60
-7 -111 -18 -115 -24 -10 -15 -646 -16 -656 0 -4 6 -37 17 -74 24 -38 7 -68
16 -68 21 0 5 -20 14 -45 20 -25 6 -45 15 -45 19 0 4 -10 10 -22 14 -34 8
-147 104 -148 124 0 7 -6 15 -14 18 -7 3 -22 31 -31 62 -10 31 -23 60 -29 64
-16 10 -14 310 2 316 6 2 12 15 12 28 0 30 31 157 40 164 3 3 12 24 20 48 7
23 17 42 21 42 5 0 14 18 20 40 7 22 16 40 20 40 4 0 13 16 19 35 6 19 15 35
20 35 5 0 16 21 26 47 10 26 26 55 36 65 10 10 18 25 18 33 0 8 5 15 10 15 6
0 15 11 20 25 5 14 13 25 18 25 5 0 14 10 19 23 12 23 36 57 66 88 9 11 17 22
17 27 0 4 12 21 26 37 14 17 35 43 47 59 12 16 43 50 70 76 26 26 47 50 47 55
0 8 343 347 412 407 24 21 61 54 82 74 22 20 51 43 65 52 14 9 32 25 39 34 7
10 18 18 23 18 5 0 22 13 38 29 16 16 44 37 62 47 19 9 40 25 47 35 7 11 17
19 23 19 5 0 19 9 32 20 12 12 29 27 37 35 8 7 27 19 43 26 15 7 27 15 27 19
0 4 14 13 30 20 17 7 30 16 30 21 0 5 11 14 25 19 14 5 25 13 25 18 0 5 18 17
39 27 22 10 42 23 45 30 2 7 18 16 35 20 17 4 31 11 31 16 0 5 11 14 25 19 14
5 25 14 25 19 0 5 14 14 30 20 17 5 30 15 30 20 0 6 5 11 11 11 17 0 82 33
103 52 11 10 26 18 33 18 7 0 13 4 13 8 0 5 16 14 35 22 19 8 35 17 35 20 0 7
72 40 88 40 7 0 12 5 12 11 0 5 14 15 30 20 17 6 30 14 30 18 0 4 18 13 40 20
22 6 40 15 40 20 0 4 25 16 55 26 30 11 55 23 55 27 0 4 18 13 40 19 22 7 40
15 40 19 0 4 20 13 45 20 25 7 45 16 45 20 0 4 21 15 48 25 26 10 49 21 52 25
3 3 26 12 53 20 26 7 47 16 47 20 0 5 23 13 50 20 28 7 50 16 50 20 0 5 25 14
55 21 30 7 55 15 55 19 0 4 36 15 80 26 44 10 80 22 80 26 0 4 27 12 60 19 33
6 60 15 60 18 0 4 30 13 68 21 37 7 69 16 72 20 6 9 180 40 222 40 15 0 28 4
28 8 0 9 164 32 223 32 20 0 37 5 37 10 0 6 82 10 225 10 143 0 225 -4 225
-10 0 -5 12 -10 26 -10 38 0 158 -23 164 -31 3 -4 33 -15 68 -24 34 -10 62
-21 62 -25 0 -5 14 -13 30 -19 17 -5 30 -15 30 -20 0 -6 6 -11 13 -11 6 0 27
-16 46 -35 19 -19 37 -35 41 -35 4 0 15 -18 24 -40 9 -22 20 -40 25 -40 5 0
11 -8 14 -19 4 -17 10 -18 57 -9 28 5 99 8 156 6 57 -2 104 1 104 5 0 24 -24
97 -31 97 -5 0 -14 20 -20 44 -6 25 -17 47 -25 50 -8 3 -14 13 -14 21 0 18
-180 205 -197 205 -5 0 -19 8 -31 18 -11 9 -29 24 -39 33 -11 9 -44 24 -74 35
-30 10 -56 22 -59 26 -3 3 -28 12 -55 19 -28 7 -52 16 -55 20 -3 4 -41 13 -85
20 -44 7 -83 18 -87 23 -7 11 -507 18 -615 9z"/>
<path d="M5213 6503 c-18 -2 -33 -8 -33 -12 0 -5 -34 -14 -75 -21 -41 -7 -75
-17 -75 -21 0 -5 -6 -9 -13 -9 -9 0 -11 -12 -9 -40 2 -22 8 -40 12 -40 9 0 32
-88 26 -98 -7 -11 8 -33 25 -37 41 -9 59 -19 59 -30 0 -6 19 -18 43 -26 23 -7
47 -18 53 -24 41 -37 78 -58 122 -70 12 -4 22 -11 22 -16 0 -5 5 -9 11 -9 8 0
9 15 5 48 -4 26 -10 71 -13 100 -3 28 -9 52 -13 52 -5 0 -14 32 -20 70 -6 39
-15 70 -20 70 -4 0 -10 23 -13 50 -9 75 -7 74 -94 63z"/>
<path d="M2705 6303 c-3 -29 -10 -53 -15 -53 -9 0 -26 -141 -22 -187 2 -24 -1
-33 -13 -33 -8 0 -15 -4 -15 -10 0 -5 6 -10 13 -10 8 0 9 -3 1 -8 -17 -11 -27
-62 -12 -62 19 0 79 56 70 65 -4 5 -2 5 4 2 6 -4 22 2 34 13 13 11 26 20 30
20 4 0 20 11 36 25 16 14 37 28 47 31 9 3 17 9 17 14 0 5 -8 10 -17 13 -10 2
-2 4 18 3 27 0 45 8 68 30 17 16 31 34 31 41 0 6 6 14 13 16 9 4 9 8 -2 15
-12 9 -12 13 2 27 21 20 22 55 3 55 -8 0 -16 4 -18 9 -1 6 -62 16 -135 23
l-131 13 -7 -52z"/>
<path d="M3915 5607 c-33 -6 -65 -16 -72 -23 -7 -6 -28 -15 -48 -18 -19 -4
-35 -11 -35 -16 0 -5 -15 -13 -33 -19 -18 -6 -44 -19 -56 -29 -42 -31 -181
-171 -181 -181 0 -6 -6 -14 -14 -18 -7 -4 -19 -25 -25 -45 -7 -21 -16 -38 -20
-38 -9 0 -41 -94 -41 -120 0 -10 -6 -20 -12 -22 -10 -4 -13 -46 -13 -168 0
-122 3 -164 13 -167 6 -3 12 -16 12 -30 0 -25 30 -123 40 -133 3 -3 11 -17 17
-32 7 -16 17 -28 23 -28 5 0 10 -6 10 -12 0 -29 132 -168 179 -189 17 -8 31
-18 31 -22 0 -4 16 -15 35 -23 19 -8 35 -18 35 -23 0 -4 26 -14 58 -21 31 -8
59 -17 62 -20 11 -14 117 -30 195 -30 81 0 185 15 195 29 3 4 30 13 60 20 30
8 60 19 65 26 6 7 26 18 45 26 38 15 36 13 143 113 42 39 77 77 77 84 0 7 4
12 9 12 11 0 41 56 41 75 0 7 6 15 14 18 7 3 17 23 21 44 4 21 11 41 17 44 5
3 14 39 19 80 6 41 15 76 20 77 11 4 12 152 1 152 -5 0 -14 35 -20 77 -7 42
-16 80 -21 83 -5 3 -14 24 -20 48 -7 23 -15 42 -19 42 -4 0 -16 19 -26 42 -10
24 -31 55 -47 70 -16 16 -29 31 -29 35 0 10 -64 73 -75 73 -6 0 -16 9 -23 20
-7 11 -19 20 -27 20 -8 0 -15 4 -15 10 0 5 -17 17 -37 27 -21 9 -44 23 -50 29
-7 7 -31 15 -53 19 -22 4 -40 10 -40 14 0 26 -266 38 -385 18z m95 -87 c12 -8
10 -10 -8 -10 -13 0 -30 -7 -38 -15 -10 -9 -34 -15 -64 -15 -40 0 -50 -4 -64
-25 -22 -34 -20 -45 8 -45 37 0 76 -18 76 -34 0 -8 6 -21 13 -28 6 -7 18 -25
26 -40 17 -33 44 -36 73 -8 12 11 30 20 40 20 10 0 18 4 18 9 0 5 16 12 37 16
35 6 93 53 93 75 0 6 7 13 15 16 22 9 18 29 -7 42 -22 10 -22 11 5 11 38 1
117 -19 117 -30 0 -5 7 -9 15 -9 8 0 23 -8 33 -17 10 -10 30 -25 46 -33 37
-19 50 -44 36 -70 -6 -11 -16 -20 -23 -20 -18 0 -53 -43 -39 -48 17 -5 15 -29
-3 -36 -16 -6 -55 13 -55 26 0 15 -38 8 -44 -8 -4 -11 1 -18 14 -21 32 -8 28
-70 -5 -85 -22 -10 -25 -17 -24 -58 2 -38 -3 -51 -24 -73 -23 -22 -27 -35 -27
-80 0 -82 20 -101 101 -99 74 2 99 -4 99 -24 0 -8 4 -14 9 -14 12 0 22 -53 24
-129 1 -41 7 -66 15 -69 6 -2 12 -12 12 -22 0 -10 7 -31 15 -46 8 -16 15 -36
15 -44 -1 -21 -31 -55 -67 -73 -17 -9 -33 -23 -36 -32 -4 -8 -13 -15 -21 -15
-8 0 -21 -6 -28 -12 -21 -20 -56 -38 -73 -38 -8 0 -15 -4 -15 -9 0 -27 -253
-41 -378 -21 -85 14 -106 34 -97 92 9 51 21 78 37 78 14 0 91 78 107 108 6 12
17 22 24 22 16 0 47 36 47 55 0 17 20 57 34 66 15 11 -27 46 -64 54 -20 4 -48
22 -66 41 -17 19 -35 34 -40 34 -16 0 -64 24 -64 33 0 12 -91 8 -104 -5 -17
-18 -36 -75 -36 -110 0 -35 15 -62 59 -104 33 -32 34 -35 28 -91 -3 -32 -11
-59 -17 -61 -5 -2 -10 -23 -10 -47 0 -24 -3 -50 -6 -59 -9 -23 -39 -19 -70 9
-15 14 -31 25 -35 25 -13 0 -52 44 -73 81 -11 19 -25 37 -32 42 -7 4 -15 20
-19 36 -3 16 -13 32 -21 35 -8 3 -14 14 -14 25 0 11 -7 27 -16 35 -9 9 -20 48
-26 89 -5 39 -14 74 -19 75 -5 2 -9 26 -9 53 0 36 6 56 19 71 22 23 48 19 58
-9 8 -23 23 -33 50 -33 19 0 22 6 25 43 l3 42 57 0 c48 1 60 5 81 27 13 14 27
33 30 42 4 9 18 21 32 28 14 6 25 15 25 20 0 4 7 8 15 8 8 0 20 9 27 20 8 12
24 20 40 20 16 0 28 5 28 10 0 6 -4 10 -9 10 -5 0 -11 9 -14 21 -3 11 -15 23
-26 26 -12 3 -21 9 -21 14 0 5 -9 9 -20 9 -11 0 -20 5 -20 10 0 6 5 10 10 10
6 0 10 16 10 35 0 25 -4 35 -15 35 -9 0 -18 7 -21 15 -4 9 -19 15 -39 15 -19
0 -37 4 -40 10 -8 14 13 50 30 50 8 0 18 6 22 13 4 8 31 20 58 27 28 7 52 17
55 20 6 8 77 28 105 29 11 0 27 -4 35 -9z m-267 -226 c-3 -8 -9 -14 -14 -14
-5 0 -9 -11 -9 -24 0 -14 -5 -28 -11 -32 -15 -9 -87 16 -93 32 -8 22 4 44 25
44 23 0 69 21 69 32 0 4 9 0 19 -9 11 -9 17 -22 14 -29z m794 -48 c-4 -9 -11
-16 -17 -16 -11 0 -14 33 -3 43 11 11 26 -10 20 -27z m-67 -125 c0 -8 23 -15
85 -25 59 -11 84 -20 89 -32 3 -8 -1 -14 -12 -15 -124 -8 -148 -4 -155 23 -5
16 -13 19 -49 17 -42 -4 -44 -2 -39 31 1 12 81 13 81 1z"/>
<path d="M4210 5320 c0 -13 7 -20 20 -20 13 0 20 7 20 20 0 13 -7 20 -20 20
-13 0 -20 -7 -20 -20z"/>
<path d="M3740 4935 c0 -8 5 -15 10 -15 6 0 10 7 10 15 0 8 -4 15 -10 15 -5 0
-10 -7 -10 -15z"/>
<path d="M3603 4923 c-26 -10 -13 -33 17 -33 23 0 30 4 30 20 0 20 -19 25 -47
13z"/>
<path d="M5175 4963 c0 -254 2 -458 3 -453 2 6 9 10 16 10 7 0 25 11 40 25 15
13 35 29 46 35 11 6 20 17 20 25 0 8 8 15 18 15 9 0 33 17 52 38 20 20 48 43
63 51 15 8 27 20 27 28 0 7 5 13 10 13 6 0 10 85 10 234 l0 234 -31 23 c-17
13 -43 34 -56 47 -24 21 -37 26 -55 23 -5 0 -8 5 -8 12 0 18 -45 38 -67 31
-15 -5 -16 -4 -3 5 13 9 12 12 -5 25 -11 9 -28 16 -37 16 -9 0 -23 6 -30 13
-11 11 -13 -64 -13 -450z m65 353 c0 -2 -7 -7 -16 -10 -8 -3 -12 -2 -9 4 6 10
25 14 25 6z m110 -546 c0 -5 -4 -10 -10 -10 -5 0 -10 5 -10 10 0 6 5 10 10 10
6 0 10 -4 10 -10z m81 -13 c-10 -9 -11 -8 -5 6 3 10 9 15 12 12 3 -3 0 -11 -7
-18z"/>
<path d="M2827 5279 c-16 -16 -26 -33 -22 -38 3 -5 0 -13 -6 -17 -8 -4 -9 -3
-5 4 4 7 1 12 -6 12 -21 0 -90 -69 -84 -85 3 -9 0 -12 -9 -9 -24 10 -36 -5
-24 -29 9 -21 9 -21 -5 -4 -14 18 -16 17 -54 -22 -22 -23 -45 -41 -51 -41 -8
0 -11 -55 -11 -185 0 -117 4 -185 10 -185 6 0 10 -11 10 -25 0 -17 8 -29 25
-37 14 -6 25 -15 25 -19 0 -4 14 -12 30 -18 17 -5 30 -14 30 -18 0 -14 60 -45
75 -39 9 3 12 0 8 -10 -5 -14 22 -21 30 -6 2 4 3 2 1 -3 -5 -25 68 -77 83 -60
5 4 2 10 -4 12 -15 5 -17 33 -3 33 6 0 10 11 10 25 0 14 -4 25 -10 25 -14 0
-12 27 3 34 10 5 10 7 0 12 -16 7 -19 654 -3 654 6 0 10 7 10 15 0 8 -4 15 -9
15 -5 0 -11 8 -13 19 -3 16 -6 15 -31 -10z m-167 -679 c0 -5 -4 -10 -10 -10
-5 0 -10 5 -10 10 0 6 5 10 10 10 6 0 10 -4 10 -10z m40 0 c0 -5 -4 -10 -10
-10 -5 0 -10 5 -10 10 0 6 5 10 10 10 6 0 10 -4 10 -10z"/>
<path d="M7750 3920 l0 -320 50 0 50 0 0 320 0 320 -50 0 -50 0 0 -320z"/>
<path d="M8813 4233 c-9 -3 -13 -35 -13 -111 l0 -106 -20 22 c-27 28 -57 35
-130 30 -66 -5 -95 -26 -120 -89 -8 -19 -19 -37 -24 -41 -16 -11 -15 -210 1
-215 7 -3 17 -20 23 -39 7 -19 24 -47 38 -62 23 -22 38 -27 92 -30 60 -3 67
-2 98 26 17 16 32 34 32 40 0 7 7 12 15 12 10 0 15 -11 15 -35 0 -35 0 -35 45
-35 l45 0 0 320 0 320 -42 -1 c-24 0 -49 -3 -55 -6z m-60 -258 c42 -17 47 -33
47 -150 0 -89 -1 -91 -31 -118 -22 -19 -42 -27 -70 -27 -21 0 -39 5 -39 10 0
6 -5 10 -11 10 -18 0 -38 32 -39 63 0 15 -4 27 -10 27 -5 0 -10 20 -10 45 0
25 4 45 8 45 5 0 12 19 18 42 8 35 14 43 44 54 46 17 52 16 93 -1z"/>
<path d="M11030 4190 l0 -50 45 0 45 0 0 50 0 50 -45 0 -45 0 0 -50z"/>
<path d="M12495 4205 c8 -20 21 -43 30 -51 8 -9 15 -21 15 -28 0 -7 9 -23 20
-36 11 -13 23 -34 26 -47 4 -13 9 -23 13 -23 3 0 15 -19 26 -43 11 -23 27 -47
35 -54 12 -9 16 -42 18 -154 3 -102 7 -146 17 -155 7 -8 34 -14 59 -14 l44 0
4 140 c2 89 7 143 14 148 6 4 17 24 25 45 7 20 16 37 20 37 4 0 12 14 19 30 7
17 16 30 20 30 5 0 11 14 15 31 4 17 15 39 25 49 10 10 23 34 30 54 6 20 15
36 20 36 4 0 10 9 13 20 5 18 0 20 -36 20 -52 -1 -70 -14 -86 -62 -7 -21 -16
-38 -21 -38 -5 0 -14 -16 -21 -35 -7 -19 -16 -35 -20 -35 -4 0 -15 -20 -26
-45 -19 -47 -39 -58 -50 -27 -4 9 -12 20 -19 25 -7 4 -15 21 -19 37 -4 17 -10
30 -15 30 -5 0 -14 16 -20 35 -6 19 -15 35 -20 35 -4 0 -15 18 -24 40 l-16 40
-65 0 -65 0 15 -35z"/>
<path d="M14903 4148 c-13 -6 -28 -26 -35 -44 l-12 -34 -94 0 c-51 0 -103 -5
-115 -11 -26 -15 -56 -50 -57 -66 0 -7 -4 -13 -10 -13 -5 0 -10 -20 -10 -45 0
-25 4 -45 9 -45 5 0 11 -8 15 -17 3 -10 11 -26 18 -36 11 -15 10 -20 -2 -27
-42 -26 -45 -31 -45 -74 0 -33 5 -49 19 -59 19 -14 19 -15 -7 -37 -15 -13 -27
-30 -27 -37 0 -7 -4 -13 -10 -13 -5 0 -10 -13 -10 -30 0 -16 3 -30 8 -30 4 0
13 -13 20 -30 9 -18 26 -34 48 -42 19 -6 34 -16 34 -20 0 -4 52 -8 115 -8 63
0 115 4 115 9 0 5 14 11 31 15 17 3 45 20 62 38 29 29 32 37 32 94 0 56 -3 65
-30 90 -29 27 -35 28 -163 34 -117 5 -136 8 -148 25 -8 11 -12 26 -9 33 3 8 5
17 5 22 0 4 48 10 108 12 101 3 109 5 137 31 16 15 33 27 37 27 4 0 12 18 18
40 12 46 -4 120 -27 120 -14 0 -17 27 -7 54 4 11 19 16 45 16 38 0 39 1 39 35
0 34 -1 35 -37 34 -21 0 -48 -5 -60 -11z m-85 -149 c2 -5 10 -9 17 -9 7 0 16
-7 19 -16 23 -61 -18 -114 -90 -114 -24 0 -44 5 -44 10 0 6 -6 10 -14 10 -17
0 -26 22 -26 67 0 26 5 36 20 40 11 3 20 9 20 13 0 20 91 19 98 -1z m71 -396
c19 -18 22 -28 17 -57 -6 -33 -10 -35 -62 -46 -121 -25 -224 19 -224 95 l0 37
123 -4 c110 -3 125 -5 146 -25z"/>
<path d="M8007 4063 c-4 -3 -7 -109 -7 -235 l0 -228 49 0 50 0 3 162 c2 118 6
162 16 166 6 2 12 10 12 18 0 20 67 45 99 38 50 -13 51 -15 51 -205 l0 -179
55 0 55 0 0 190 c0 105 -4 190 -8 190 -4 0 -13 15 -20 33 -15 42 -47 57 -120
57 -52 0 -62 -4 -93 -33 -20 -19 -40 -42 -44 -53 -7 -15 -10 -9 -13 26 -2 24
-9 48 -15 52 -15 10 -61 10 -70 1z"/>
<path d="M9131 4057 c-36 -17 -66 -49 -81 -88 -8 -19 -18 -37 -23 -40 -12 -8
-11 -170 1 -178 5 -3 13 -21 17 -39 4 -18 13 -36 20 -38 7 -3 15 -14 18 -25 3
-10 13 -22 24 -26 10 -4 24 -13 32 -21 22 -22 189 -12 203 11 5 9 16 17 23 17
8 0 15 6 15 14 0 8 8 21 18 28 40 29 60 142 41 238 -9 49 -20 71 -48 101 -21
21 -49 43 -65 48 -36 14 -165 13 -195 -2z m119 -57 c0 -5 8 -10 18 -10 10 0
32 -15 48 -32 28 -31 29 -37 29 -124 -1 -73 -4 -95 -18 -108 -9 -10 -22 -26
-27 -37 -9 -15 -22 -19 -63 -19 -47 0 -56 4 -81 32 -27 31 -28 34 -24 141 3
102 4 109 28 127 14 11 33 20 43 20 9 0 17 5 17 10 0 6 7 10 15 10 8 0 15 -4
15 -10z"/>
<path d="M9560 3836 l0 -236 50 0 50 0 0 160 c0 88 3 160 8 160 4 0 14 13 23
29 28 48 124 49 136 1 3 -11 9 -20 14 -20 5 0 9 -74 9 -165 l0 -165 51 0 51 0
-4 190 c-2 112 -7 194 -13 198 -6 4 -16 19 -24 33 -17 35 -50 49 -111 49 -64
0 -92 -12 -110 -46 -24 -47 -35 -47 -40 -1 -5 41 -6 42 -47 45 l-43 3 0 -235z"/>
<path d="M10165 4058 c-11 -6 -25 -19 -31 -27 -7 -9 -24 -29 -38 -46 -14 -16
-26 -38 -26 -47 0 -10 -4 -18 -10 -18 -6 0 -10 -35 -10 -85 0 -47 4 -85 9 -85
5 0 11 -14 15 -31 3 -17 26 -50 53 -77 l46 -47 91 0 c97 0 95 -1 160 61 44 42
50 61 23 68 -41 11 -60 6 -89 -24 -25 -26 -35 -30 -83 -30 -47 0 -59 4 -85 30
-22 22 -30 38 -30 65 0 61 11 65 174 65 165 0 157 -5 136 88 -11 45 -14 49
-68 110 l-33 37 -92 3 c-58 1 -99 -2 -112 -10z m125 -58 c0 -5 8 -10 18 -10
30 -1 64 -38 66 -72 l1 -33 -107 -3 -108 -3 0 25 c0 49 17 75 55 82 19 3 35
10 35 15 0 5 9 9 20 9 11 0 20 -4 20 -10z"/>
<path d="M10630 4063 c-29 -12 -61 -55 -72 -98 -14 -50 3 -125 27 -125 8 0 18
-7 23 -16 6 -10 34 -20 80 -27 40 -6 72 -15 72 -19 0 -4 11 -8 25 -8 41 0 56
-68 21 -92 -6 -4 -39 -8 -74 -8 -54 0 -65 3 -84 25 -16 18 -32 25 -59 25 -21
0 -41 -5 -44 -11 -10 -14 23 -79 40 -79 8 0 18 -8 24 -17 8 -15 25 -18 118
-18 118 0 130 5 191 79 13 16 17 126 4 126 -4 0 -12 10 -17 22 -6 13 -24 27
-42 32 -18 5 -33 12 -33 16 0 5 -31 11 -70 15 -105 11 -161 71 -90 98 17 6 30
15 30 19 0 4 9 8 20 8 11 0 20 -4 20 -9 0 -5 16 -12 35 -15 19 -4 35 -11 35
-16 0 -6 21 -10 46 -10 44 0 46 1 40 25 -3 13 -18 37 -32 52 -24 26 -31 27
-122 30 -53 1 -104 0 -112 -4z"/>
<path d="M11030 3835 l0 -235 45 0 45 0 0 235 0 235 -45 0 -45 0 0 -235z"/>
<path d="M11337 4059 c-53 -20 -111 -99 -73 -99 9 0 16 -4 16 -10 0 -19 39
-10 66 15 15 14 38 25 50 25 13 0 24 5 24 10 0 6 9 10 20 10 11 0 20 -4 20 -8
0 -5 19 -12 43 -18 41 -9 42 -10 42 -49 l0 -40 -104 -6 c-57 -4 -106 -11 -110
-16 -3 -5 -22 -17 -43 -26 -31 -14 -38 -24 -48 -66 -14 -61 1 -125 38 -161 23
-20 39 -25 101 -28 55 -3 77 -1 85 9 6 8 23 20 39 28 15 8 27 20 27 28 0 28
18 11 24 -22 7 -34 8 -35 56 -35 49 0 50 1 50 30 0 17 -4 30 -9 30 -6 0 -11
75 -13 174 l-3 174 -29 28 c-27 28 -32 29 -135 31 -58 1 -119 -3 -134 -8z
m208 -273 c-1 -43 -5 -61 -18 -71 -9 -7 -17 -17 -17 -23 0 -15 -26 -22 -82
-22 -92 0 -127 67 -67 129 25 27 41 34 92 41 94 12 92 13 92 -54z"/>
<path d="M11797 4063 c-4 -3 -7 -109 -7 -235 l0 -228 50 0 50 0 0 159 0 158
28 30 c15 17 38 33 52 37 35 8 87 -13 94 -38 3 -12 6 -94 6 -183 l0 -163 55 0
55 0 0 170 c0 94 -4 170 -9 170 -4 0 -11 17 -14 37 -4 23 -18 47 -37 65 -27
24 -39 28 -91 28 -58 0 -61 -1 -104 -47 l-45 -47 0 41 c0 28 -5 43 -16 47 -21
8 -59 8 -67 -1z"/>
<path d="M13125 4063 c-29 -7 -106 -91 -116 -127 -20 -70 -5 -236 22 -236 5 0
9 -6 9 -14 0 -7 17 -31 37 -52 l36 -39 94 0 c80 0 96 3 104 18 6 9 16 17 24
17 8 0 20 10 26 22 7 13 18 29 26 36 8 8 17 27 20 43 3 16 9 29 14 29 5 0 9
32 9 70 0 39 -4 70 -9 70 -5 0 -12 15 -15 34 -4 19 -20 49 -36 67 -16 19 -30
37 -30 40 0 23 -148 38 -215 22z m95 -63 c0 -5 10 -10 23 -10 35 -1 55 -22 68
-74 15 -62 6 -186 -16 -202 -8 -6 -15 -16 -15 -22 0 -26 -130 -28 -138 -2 -2
5 -11 18 -20 27 -14 13 -17 37 -17 124 0 102 1 108 25 128 14 11 33 20 43 21
9 0 17 5 17 10 0 6 7 10 15 10 8 0 15 -4 15 -10z"/>
<path d="M13537 4064 c-13 -14 -8 -381 6 -396 6 -7 18 -25 26 -40 16 -30 36
-38 108 -38 33 0 57 5 67 15 8 8 19 15 24 15 5 0 14 11 20 25 18 38 42 32 42
-10 0 -35 0 -35 45 -35 l45 0 -2 233 -3 232 -47 3 -48 3 0 -150 c0 -94 -4
-151 -10 -151 -5 0 -10 -8 -10 -18 0 -10 -14 -30 -31 -45 -38 -33 -90 -36
-119 -7 -18 18 -20 36 -22 192 l-3 173 -40 3 c-23 2 -44 0 -48 -4z"/>
<path d="M14057 4063 c-4 -3 -7 -109 -7 -235 l0 -228 55 0 55 0 0 143 c0 204
14 238 97 240 24 1 40 -6 58 -26 24 -26 25 -30 25 -192 l0 -165 50 0 50 0 0
163 c-1 183 -9 234 -45 273 -21 23 -36 29 -85 32 -76 6 -112 -10 -133 -60 -23
-52 -37 -48 -37 12 l0 50 -38 0 c-21 0 -42 -3 -45 -7z"/>
<path d="M5382 3860 c-7 -11 -19 -20 -27 -20 -8 0 -18 -6 -22 -14 -4 -7 -21
-17 -37 -23 -17 -5 -31 -16 -34 -24 -3 -12 -2 -12 7 1 5 8 13 11 17 7 9 -8 1
-17 -18 -22 -36 -9 -58 -18 -58 -26 0 -4 -17 -16 -37 -26 -21 -9 -45 -24 -54
-33 -30 -27 -45 -37 -59 -43 -13 -5 -13 -6 0 -6 12 -1 12 -3 2 -9 -7 -5 -14
-22 -15 -38 l-2 -29 90 -11 c50 -7 113 -13 142 -13 31 -1 53 -6 56 -13 2 -7 8
8 12 35 4 26 11 47 15 47 8 0 45 251 39 269 -2 6 -9 3 -17 -9z m-12 -120 c0
-5 -4 -10 -10 -10 -5 0 -10 5 -10 10 0 6 5 10 10 10 6 0 10 -4 10 -10z"/>
<path d="M2640 3820 c0 -5 4 -10 8 -10 5 0 14 -47 22 -105 7 -58 16 -105 20
-105 4 0 12 -35 18 -77 6 -43 13 -87 16 -98 2 -11 5 -31 5 -44 1 -22 3 -23 54
-16 74 9 99 12 126 14 14 0 21 6 18 14 -3 8 9 12 44 12 26 0 50 3 54 6 8 8
-27 213 -37 217 -5 2 -15 10 -23 19 -8 8 -25 15 -37 16 -13 0 -30 9 -38 18 -9
9 -32 24 -53 33 -21 8 -45 22 -53 31 -9 8 -26 15 -39 15 -17 0 -23 4 -19 14 4
9 -6 18 -30 26 -20 6 -36 16 -36 21 0 5 -4 9 -10 9 -5 0 -10 -4 -10 -10z m240
-170 c0 -5 -4 -10 -10 -10 -5 0 -10 5 -10 10 0 6 5 10 10 10 6 0 10 -4 10 -10z"/>
<path d="M7873 3063 c-18 -2 -33 -8 -33 -13 0 -4 -11 -11 -25 -14 -26 -7 -75
-54 -75 -73 0 -6 -5 -13 -12 -15 -7 -3 -11 -28 -11 -68 0 -40 4 -65 11 -68 7
-2 12 -9 12 -15 1 -30 41 -58 107 -75 37 -9 70 -20 73 -24 3 -3 27 -9 53 -13
27 -4 51 -14 54 -21 3 -8 11 -14 18 -14 16 0 25 -23 25 -63 -1 -60 -40 -87
-126 -87 -87 0 -130 16 -141 54 -8 29 -12 31 -48 28 -22 -2 -41 -8 -43 -13 -2
-5 -11 -9 -20 -9 -11 0 -13 -3 -6 -8 6 -4 14 -16 18 -28 13 -41 69 -90 118
-102 64 -16 175 -15 232 2 66 20 122 80 132 141 12 81 -27 175 -73 175 -7 0
-13 4 -13 8 0 9 -59 32 -83 32 -9 0 -17 4 -17 9 0 5 -24 12 -54 15 -104 13
-151 91 -88 147 22 19 38 24 83 24 39 -1 61 -6 73 -18 10 -9 21 -17 26 -17 4
0 10 -8 12 -18 4 -15 13 -17 42 -14 20 2 36 8 36 13 0 5 10 9 23 10 12 0 16 3
10 6 -7 2 -13 9 -13 15 0 17 -63 75 -91 83 -13 4 -26 11 -29 16 -7 10 -114 18
-157 12z"/>
<path d="M8730 3005 l0 -55 44 0 c46 0 56 10 56 55 0 45 -10 55 -56 55 l-44 0
0 -55z"/>
<path d="M10270 3005 l0 -55 50 0 50 0 0 55 0 55 -50 0 -50 0 0 -55z"/>
<path d="M11620 3040 c0 -11 -4 -20 -9 -20 -5 0 -15 -29 -22 -65 -7 -36 -16
-65 -19 -65 -4 0 -15 -36 -25 -80 -10 -44 -21 -80 -25 -80 -4 0 -13 -27 -20
-60 -7 -33 -16 -60 -20 -60 -5 0 -14 -24 -20 -52 -7 -29 -16 -55 -19 -58 -4
-3 -12 -22 -18 -42 l-11 -38 49 0 c46 0 49 2 49 25 0 14 4 25 9 25 4 0 12 19
17 43 l9 42 133 3 132 3 6 -31 c4 -16 10 -30 14 -30 5 0 11 -18 15 -40 l7 -40
59 0 c33 0 59 4 59 10 0 6 -4 10 -8 10 -5 0 -17 36 -27 80 -10 44 -21 80 -25
80 -4 0 -13 27 -19 60 -7 33 -15 60 -19 60 -5 0 -14 27 -21 60 -8 33 -17 60
-21 60 -5 0 -16 34 -26 75 -10 41 -21 75 -25 75 -4 0 -10 16 -13 35 l-7 35
-69 0 c-63 0 -70 -2 -70 -20z m70 -125 c0 -8 4 -15 9 -15 4 0 14 -27 21 -60 7
-33 16 -60 19 -60 8 0 31 -82 31 -110 0 -19 -7 -20 -95 -20 -52 0 -95 3 -95 6
0 21 26 101 36 111 7 7 15 31 19 53 4 22 11 40 16 40 5 0 9 9 9 19 0 26 10 51
21 51 5 0 9 -7 9 -15z"/>
<path d="M13853 3045 c-17 -19 -16 -63 1 -81 8 -8 33 -14 55 -14 l41 0 0 55 0
55 -42 0 c-24 -1 -49 -7 -55 -15z"/>
<path d="M14900 3005 l0 -55 45 0 45 0 0 55 0 55 -45 0 -45 0 0 -55z"/>
<path d="M10050 3010 c0 -5 -13 -10 -30 -10 -30 0 -30 -1 -30 -55 l0 -55 -35
0 c-19 0 -35 -1 -35 -2 -12 -77 -12 -78 8 -78 51 0 52 -3 52 -149 1 -221 16
-250 128 -251 l62 0 0 35 c0 32 -2 35 -30 35 -16 0 -30 5 -30 10 0 6 -6 10
-14 10 -20 0 -24 38 -23 180 l2 125 43 3 c42 3 42 3 42 43 l0 39 -45 0 -45 0
0 65 c0 37 -4 65 -10 65 -5 0 -10 -4 -10 -10z"/>
<path d="M11020 3010 c0 -5 -9 -10 -21 -10 -32 0 -49 -25 -49 -69 0 -39 -2
-41 -30 -41 -28 0 -30 -2 -30 -39 0 -33 4 -40 23 -43 22 -3 22 -6 27 -166 3
-98 10 -166 16 -170 6 -4 13 -15 17 -25 9 -23 48 -37 108 -37 l49 0 0 35 c0
31 -3 35 -25 35 -14 0 -34 9 -45 20 -18 18 -20 33 -20 165 l0 145 45 0 c41 0
45 2 45 24 0 45 -10 56 -51 56 l-39 0 0 65 c0 37 -4 65 -10 65 -5 0 -10 -4
-10 -10z"/>
<path d="M14680 3013 c0 -6 -15 -13 -32 -15 -32 -3 -33 -4 -36 -55 -3 -51 -4
-53 -33 -53 -27 0 -29 -2 -29 -39 0 -33 4 -40 23 -43 22 -3 22 -7 28 -168 3
-91 9 -173 13 -182 12 -26 69 -48 125 -48 l51 0 0 35 c0 32 -2 35 -30 35 -16
0 -30 5 -30 10 0 6 -7 10 -15 10 -13 0 -15 24 -15 155 l0 155 45 0 c41 0 45 2
45 24 0 45 -10 56 -51 56 l-39 0 0 53 c0 28 -5 59 -10 67 -6 9 -10 10 -10 3z"/>
<path d="M4859 2942 c-9 -2 -22 -29 -34 -72 -11 -39 -22 -70 -26 -70 -3 0 -11
-18 -18 -40 -6 -22 -16 -40 -21 -40 -6 0 -10 -7 -10 -15 0 -14 -18 -53 -30
-65 -3 -3 -14 -23 -25 -45 -11 -22 -22 -42 -25 -45 -3 -3 -12 -18 -20 -35 -16
-32 -26 -46 -52 -75 -27 -30 -37 -55 -31 -79 4 -17 2 -20 -11 -15 -21 8 -46
-13 -46 -38 0 -14 -5 -18 -15 -14 -8 3 -15 1 -15 -3 0 -11 -56 -67 -98 -100
-18 -13 -30 -27 -27 -30 2 -4 -6 -8 -17 -8 -22 -2 -40 -22 -32 -35 3 -4 -3 -5
-12 -1 -10 4 -21 0 -28 -9 -6 -8 -35 -21 -63 -27 -51 -13 -66 -25 -41 -33 7
-3 -49 -4 -123 -4 -115 1 -138 4 -153 19 -16 16 -42 22 -73 18 -7 -1 -13 5
-13 13 0 8 -17 20 -37 27 -21 7 -46 23 -56 36 -10 12 -23 23 -28 23 -6 0 -25
16 -43 35 -19 19 -38 35 -44 35 -5 0 -13 11 -16 25 -4 14 -13 25 -21 25 -8 0
-15 7 -15 15 0 9 -9 15 -22 15 -19 0 -20 2 -8 10 9 6 10 10 3 10 -6 0 -14 8
-18 19 -5 17 -29 49 -73 94 -9 10 -18 24 -18 30 -4 27 -17 57 -26 57 -5 0 -14
14 -19 30 -6 17 -14 30 -18 30 -4 0 -13 18 -20 40 -6 22 -15 40 -19 40 -5 0
-16 24 -27 53 -10 28 -23 55 -28 58 -18 12 -92 -4 -105 -23 -7 -10 -19 -18
-25 -18 -7 0 -6 4 3 11 11 8 8 9 -15 5 -16 -3 -51 -8 -77 -12 -27 -3 -48 -10
-48 -15 0 -5 -10 -9 -22 -9 -13 0 -18 -4 -13 -8 6 -4 17 -26 25 -50 9 -29 18
-41 27 -38 8 4 11 1 7 -5 -7 -12 26 -89 39 -89 4 0 7 -8 7 -18 0 -10 9 -28 20
-40 12 -12 16 -22 10 -22 -11 0 -4 -10 33 -51 9 -10 17 -23 17 -29 0 -19 24
-60 35 -60 6 0 17 -16 24 -36 7 -21 25 -49 40 -63 14 -14 33 -39 41 -54 9 -18
20 -27 30 -24 11 3 16 -2 16 -17 -1 -15 4 -20 19 -18 14 2 16 0 7 -6 -10 -6
11 -33 79 -101 67 -67 94 -88 100 -79 7 10 9 8 9 -5 0 -10 11 -22 24 -27 13
-5 26 -15 29 -22 4 -10 6 -10 6 0 1 17 21 15 21 -2 0 -16 27 -29 41 -21 5 4 6
-1 3 -9 -4 -11 0 -16 14 -16 12 0 24 -4 27 -10 3 -5 16 -10 27 -10 11 0 26 -7
32 -16 7 -9 29 -16 53 -17 25 -1 39 -6 36 -13 -2 -7 12 -14 35 -17 54 -9 324
0 331 11 3 4 28 14 54 22 34 9 46 17 43 27 -3 8 -1 11 4 8 13 -8 83 16 93 32
4 7 14 13 22 13 8 0 18 6 22 14 4 7 22 17 38 23 17 5 34 19 40 31 5 12 15 22
22 22 16 0 99 80 95 92 -1 5 2 7 7 3 6 -3 21 6 33 21 13 15 31 34 41 43 9 8
17 20 17 25 0 5 7 16 15 25 62 67 75 83 75 90 0 4 11 21 25 37 14 16 25 35 25
42 0 6 4 12 9 12 5 0 11 10 15 23 3 13 17 36 31 53 14 16 25 36 25 45 0 9 9
26 20 39 21 24 24 33 21 63 -1 9 4 17 12 17 15 0 38 49 36 79 0 12 -3 11 -9
-4 -8 -17 -8 -17 -7 7 1 21 4 25 15 16 16 -14 25 -4 42 50 7 23 16 42 20 42 4
0 13 20 19 45 6 25 16 45 21 45 6 0 10 9 10 19 0 16 -10 20 -65 26 -36 4 -65
11 -65 16 0 5 -13 9 -30 9 -16 0 -30 -4 -30 -10 0 -5 -4 -10 -10 -10 -5 0 -10
6 -10 14 0 13 -56 25 -91 18z m211 -242 c0 -5 -4 -10 -10 -10 -5 0 -10 5 -10
10 0 6 5 10 10 10 6 0 10 -4 10 -10z m-300 -45 c0 -8 -4 -15 -10 -15 -5 0 -10
7 -10 15 0 8 5 15 10 15 6 0 10 -7 10 -15z m-90 -205 c0 -5 -4 -10 -10 -10 -5
0 -10 5 -10 10 0 6 5 10 10 10 6 0 10 -4 10 -10z m-1243 -16 c-3 -3 -12 -4
-19 -1 -8 3 -5 6 6 6 11 1 17 -2 13 -5z m1243 -29 c0 -8 -4 -15 -10 -15 -5 0
-10 7 -10 15 0 8 5 15 10 15 6 0 10 -7 10 -15z m-40 -5 c0 -5 -4 -10 -10 -10
-5 0 -10 5 -10 10 0 6 5 10 10 10 6 0 10 -4 10 -10z m-1420 -60 c0 -5 -4 -10
-10 -10 -5 0 -10 5 -10 10 0 6 5 10 10 10 6 0 10 -4 10 -10z m1647 -25 c-4 -8
-12 -15 -19 -14 -10 0 -10 2 0 6 6 2 12 12 12 21 0 8 3 13 6 9 4 -3 4 -13 1
-22z m-1257 -84 c0 -5 -7 -11 -14 -14 -10 -4 -13 -1 -9 9 6 15 23 19 23 5z
m40 -41 c0 -5 -4 -10 -10 -10 -5 0 -10 5 -10 10 0 6 5 10 10 10 6 0 10 -4 10
-10z m307 -166 c-3 -3 -12 -4 -19 -1 -8 3 -5 6 6 6 11 1 17 -2 13 -5z m470
-80 c-3 -3 -12 -4 -19 -1 -8 3 -5 6 6 6 11 1 17 -2 13 -5z m83 -13 c0 -5 -7
-11 -14 -14 -10 -4 -13 -1 -9 9 6 15 23 19 23 5z"/>
<path d="M8420 2893 c-14 -3 -27 -8 -30 -13 -3 -4 -18 -11 -35 -17 -16 -5 -36
-22 -43 -36 -7 -15 -17 -27 -21 -27 -14 0 -31 -85 -31 -157 0 -67 12 -131 27
-142 5 -3 15 -19 25 -36 23 -41 76 -58 166 -52 66 4 76 7 101 34 15 17 34 45
41 63 11 27 11 33 -1 41 -27 17 -79 7 -79 -15 0 -22 -49 -56 -80 -56 -17 0
-30 3 -30 8 0 4 -13 13 -29 20 -25 11 -31 21 -37 59 -8 57 0 183 13 192 6 3
15 16 22 29 10 19 20 22 67 22 48 0 56 -3 66 -25 6 -14 15 -25 20 -25 4 0 8
-7 8 -16 0 -12 7 -14 33 -9 17 4 34 9 36 11 2 2 -1 23 -8 46 -12 40 -44 77
-68 78 -6 0 -13 4 -15 9 -4 11 -84 21 -118 14z"/>
<path d="M9093 2893 c-18 -2 -33 -8 -33 -12 0 -5 -13 -14 -30 -21 -16 -7 -30
-18 -30 -26 0 -7 -9 -18 -20 -24 -10 -6 -22 -26 -26 -45 -3 -19 -10 -35 -15
-35 -5 0 -9 -40 -9 -90 0 -49 4 -90 8 -90 4 0 14 -16 21 -37 17 -46 53 -80
100 -93 53 -15 146 -12 187 5 37 15 73 51 74 73 0 6 5 12 10 12 20 0 9 28 -12
34 -39 10 -68 7 -68 -8 0 -8 -13 -20 -30 -28 -16 -7 -30 -16 -30 -20 0 -13
-80 -9 -96 5 -43 35 -54 49 -54 72 0 14 -4 25 -10 25 -5 0 -10 9 -10 20 0 19
7 20 166 20 l167 0 -6 66 c-3 37 -9 69 -14 73 -5 3 -17 22 -26 42 -11 24 -28
41 -49 50 -18 7 -35 16 -39 21 -7 10 -84 17 -126 11z m94 -85 c18 -7 35 -20
39 -30 3 -10 10 -18 15 -18 5 0 9 -11 9 -25 0 -16 -6 -25 -15 -25 -8 0 -15 -4
-15 -10 0 -15 -70 -12 -71 3 0 10 -2 10 -6 0 -6 -15 -93 -18 -93 -3 0 6 -7 10
-15 10 -8 0 -15 5 -15 10 0 6 5 10 10 10 6 0 10 8 10 18 1 28 26 54 62 62 47
11 48 11 85 -2z"/>
<path d="M9649 2889 c-8 -8 -26 -20 -41 -28 -16 -8 -28 -20 -28 -26 0 -7 -7
-18 -15 -25 -13 -11 -15 -6 -15 34 l0 46 -50 0 -50 0 0 -235 0 -235 55 0 55 0
0 149 c0 148 10 211 35 211 7 0 15 5 17 12 7 20 74 12 97 -11 19 -19 21 -34
23 -188 l3 -168 48 -3 47 -3 0 171 c0 198 -10 251 -48 271 -15 8 -29 17 -32
21 -12 15 -86 20 -101 7z"/>
<path d="M10583 2893 c-13 -2 -23 -9 -23 -14 0 -5 -8 -9 -17 -9 -10 -1 -29
-10 -43 -21 -21 -18 -25 -31 -28 -90 -4 -64 -2 -70 24 -99 16 -16 35 -30 41
-30 7 0 13 -4 13 -9 0 -5 21 -12 48 -15 113 -15 122 -18 133 -38 14 -25 3 -68
-16 -68 -8 0 -15 -4 -15 -10 0 -5 -25 -10 -55 -10 -30 0 -55 4 -55 9 0 5 -9
11 -20 14 -11 3 -20 12 -20 21 0 21 -75 22 -96 1 -9 -8 -11 -15 -6 -15 5 0 13
-11 16 -25 4 -14 13 -25 21 -25 8 0 15 -4 15 -10 0 -5 17 -17 38 -26 44 -19
190 -15 234 6 53 25 76 134 43 205 -16 32 -62 55 -114 55 -11 0 -21 4 -21 9 0
4 -23 11 -52 14 -65 8 -86 26 -72 64 9 27 12 28 81 28 59 0 75 -3 86 -19 11
-15 21 -17 51 -12 35 7 37 10 31 33 -6 27 -41 62 -62 63 -6 0 -13 4 -15 9 -4
11 -112 22 -145 14z"/>
<path d="M12128 2893 c-16 -2 -28 -9 -28 -14 0 -5 -6 -9 -12 -9 -17 -1 -52
-31 -67 -57 -14 -28 -14 -75 1 -124 9 -30 19 -42 45 -51 18 -7 33 -15 33 -19
0 -4 21 -11 48 -14 26 -3 66 -11 90 -17 38 -10 42 -13 42 -42 0 -47 -28 -66
-98 -66 -52 0 -59 3 -77 30 -16 23 -27 30 -53 30 -34 0 -73 -26 -56 -38 5 -4
15 -19 23 -33 19 -37 54 -51 144 -57 60 -4 91 0 133 14 48 16 56 22 70 61 37
95 -6 185 -94 199 -23 4 -42 10 -42 14 0 4 -23 10 -52 13 -65 8 -86 26 -72 64
9 26 14 28 68 31 49 3 62 0 78 -17 10 -12 25 -21 32 -21 29 0 76 13 76 21 0 8
-50 60 -83 86 -18 14 -107 24 -149 16z"/>
<path d="M12558 2893 c-16 -2 -28 -9 -28 -14 0 -5 -6 -9 -12 -9 -26 -1 -58
-39 -69 -82 -19 -68 1 -130 47 -148 19 -8 34 -17 34 -21 0 -4 19 -10 43 -14
23 -3 63 -11 90 -16 44 -10 47 -13 47 -43 0 -45 -29 -66 -90 -66 -28 0 -50 5
-50 10 0 6 -6 10 -13 10 -7 0 -23 9 -35 20 -14 13 -35 20 -62 20 -33 0 -40 -3
-40 -20 0 -11 3 -20 8 -20 4 0 13 -12 19 -27 17 -37 54 -54 136 -60 48 -4 87
-1 132 12 59 16 65 20 79 56 9 22 16 54 16 73 0 44 -19 96 -35 96 -7 0 -15 6
-18 14 -3 8 -26 18 -51 21 -25 4 -46 11 -46 15 0 4 -23 10 -52 13 -65 8 -86
26 -72 64 8 24 16 28 54 31 62 5 110 -6 110 -23 0 -9 9 -15 23 -15 32 0 67 11
67 21 0 8 -50 60 -82 86 -17 13 -109 23 -150 16z"/>
<path d="M13038 2893 c-16 -2 -28 -8 -28 -12 0 -4 -16 -13 -35 -21 -33 -13
-65 -55 -65 -86 0 -7 -6 -14 -12 -16 -16 -6 -18 -205 -2 -216 5 -4 18 -28 28
-54 23 -63 72 -83 178 -75 66 4 128 23 128 38 0 3 9 17 21 30 11 13 23 36 26
51 3 16 9 28 14 28 5 0 9 41 9 90 0 50 -4 90 -9 90 -5 0 -12 13 -16 29 -7 33
-52 91 -71 91 -7 0 -19 6 -26 14 -15 15 -97 26 -140 19z m94 -83 c32 -9 39
-17 48 -49 30 -112 20 -216 -26 -258 -48 -44 -154 -17 -154 39 0 10 -4 18 -10
18 -6 0 -10 35 -10 85 0 50 4 85 10 85 6 0 10 8 10 18 1 21 18 45 45 60 25 14
40 15 87 2z"/>
<path d="M13537 2893 c-50 -8 -122 -77 -139 -132 -7 -23 -16 -41 -20 -41 -5 0
-8 -29 -8 -65 0 -36 3 -65 8 -65 4 0 13 -23 20 -52 6 -29 19 -56 27 -61 8 -4
15 -13 15 -20 1 -23 69 -47 135 -47 99 0 144 26 170 99 13 37 12 39 -8 45 -47
12 -65 7 -76 -24 -5 -16 -17 -30 -25 -30 -9 0 -16 -4 -16 -10 0 -5 -18 -10
-40 -10 -22 0 -40 4 -40 9 0 5 -8 12 -18 16 -30 9 -45 73 -40 166 4 61 9 85
21 94 10 7 17 17 17 23 0 14 25 22 70 22 39 0 80 -29 80 -56 0 -17 19 -22 57
-17 30 5 32 8 27 32 -13 51 -51 100 -81 101 -6 0 -13 4 -15 9 -4 11 -83 20
-121 14z"/>
<path d="M14205 2893 c-16 -3 -32 -8 -35 -11 -3 -4 -22 -15 -43 -24 -28 -13
-39 -26 -43 -48 -4 -16 -12 -30 -18 -31 -18 -2 37 -17 65 -18 18 -1 29 6 37
24 11 23 17 25 74 25 92 0 106 -6 114 -47 3 -18 4 -36 2 -38 -2 -3 -43 -8 -91
-11 -48 -4 -87 -10 -87 -14 0 -4 -13 -10 -28 -13 -15 -3 -43 -21 -62 -39 -33
-31 -35 -36 -35 -102 0 -47 4 -71 13 -73 6 -3 12 -11 12 -19 0 -20 65 -44 121
-44 75 0 115 21 147 75 11 19 11 18 12 -8 0 -39 21 -57 67 -57 l38 0 -3 190
c-2 112 -7 190 -12 190 -6 0 -10 9 -10 20 0 11 -12 27 -27 37 -16 10 -30 21
-33 24 -7 10 -137 18 -175 12z m155 -271 c0 -45 -16 -87 -44 -115 -23 -23 -36
-27 -81 -27 -50 0 -54 2 -67 30 -7 17 -16 30 -20 30 -5 0 -8 9 -8 20 0 11 4
20 8 20 4 0 15 13 25 29 19 33 34 38 125 40 61 1 62 1 62 -27z"/>
<path d="M15268 2893 c-16 -2 -28 -8 -28 -13 0 -5 -14 -11 -30 -15 -17 -4 -38
-18 -48 -33 -9 -15 -19 -29 -23 -32 -13 -10 -29 -49 -29 -69 0 -12 -4 -21 -10
-21 -6 0 -10 -27 -10 -60 0 -33 4 -60 9 -60 5 0 12 -18 16 -40 4 -22 12 -43
18 -47 7 -5 20 -21 29 -38 9 -16 31 -35 50 -41 41 -15 148 -17 183 -4 33 12
85 60 85 77 0 7 4 13 9 13 26 0 40 171 20 243 -10 38 -82 117 -106 117 -6 0
-13 4 -15 9 -4 11 -83 20 -120 14z m120 -110 c24 -25 27 -38 30 -124 3 -73 1
-99 -10 -110 -8 -8 -17 -22 -21 -31 -3 -10 -13 -18 -22 -18 -8 0 -15 -4 -15
-10 0 -5 -18 -10 -40 -10 -71 0 -110 60 -110 170 0 116 31 160 113 160 41 0
54 -5 75 -27z"/>
<path d="M15828 2894 c-10 -3 -18 -9 -18 -14 0 -4 -9 -10 -21 -13 -11 -3 -23
-14 -25 -24 -3 -11 -14 -24 -25 -31 -18 -11 -19 -9 -19 33 l0 45 -45 0 -45 0
0 -235 0 -235 49 0 50 0 3 163 c3 161 3 162 30 189 41 40 78 44 114 13 l29
-25 2 -167 3 -168 45 -3 45 -3 0 171 c0 188 -11 254 -44 272 -11 6 -23 15 -26
19 -7 10 -79 19 -102 13z"/>
<path d="M8730 2655 l0 -235 50 0 50 0 0 219 c0 121 -3 226 -6 235 -4 11 -19
16 -50 16 l-44 0 0 -235z"/>
<path d="M10270 2655 l0 -235 50 0 50 0 0 235 0 235 -50 0 -50 0 0 -235z"/>
<path d="M13853 2875 c-16 -18 -18 -285 -3 -285 6 0 10 -9 10 -20 0 -11 -4
-20 -10 -20 -6 0 -10 -26 -10 -59 0 -66 5 -71 71 -71 l39 0 0 235 0 235 -42 0
c-24 -1 -49 -7 -55 -15z"/>
<path d="M14900 2655 l0 -235 45 0 45 0 0 235 0 235 -45 0 -45 0 0 -235z"/>
</g>
</svg>
