<?xml version="1.0" standalone="no"?>
<!DOCTYPE svg PUBLIC "-//W3C//DTD SVG 20010904//EN"
 "http://www.w3.org/TR/2001/REC-SVG-20010904/DTD/svg10.dtd">
<svg version="1.0" xmlns="http://www.w3.org/2000/svg"
 width="2813.000000pt" height="2250.000000pt" viewBox="0 0 2813.000000 2250.000000"
 preserveAspectRatio="xMidYMid meet">

<g transform="translate(0.000000,2250.000000) scale(0.100000,-0.100000)"
fill="#000000" stroke="none">
<path d="M650 22106 c-102 -29 -176 -89 -222 -184 -29 -59 -33 -76 -33 -152 0
-71 4 -94 26 -140 14 -30 38 -70 53 -88 16 -18 200 -150 409 -294 210 -143
394 -269 408 -279 l26 -18 191 279 c105 153 193 283 194 289 2 5 -180 135
-404 289 -330 227 -417 282 -465 295 -69 20 -120 20 -183 3z"/>
<path d="M3938 21806 c-675 -564 -1214 -1193 -1661 -1937 -1063 -1771 -1454
-4088 -1161 -6874 233 -2209 899 -4720 1971 -7422 86 -216 160 -390 164 -387
5 3 9 16 9 30 0 13 14 95 31 182 260 1345 1091 2656 2349 3707 466 389 1113
797 1595 1005 723 311 1449 848 2255 1666 418 425 834 905 1147 1324 108 145
330 558 310 576 -16 16 -711 492 -723 496 -6 2 -63 -60 -129 -137 -407 -480
-905 -975 -1380 -1370 -1107 -922 -2433 -1645 -3752 -2045 -186 -57 -555 -150
-593 -150 -44 0 -333 199 -545 375 -951 790 -1630 1898 -1930 3150 -180 752
-230 1582 -150 2480 157 1745 811 3458 1858 4864 182 244 418 522 440 518 7
-1 11 6 9 17 -2 12 1 16 9 10 8 -4 10 -3 5 4 -4 7 -3 12 2 12 6 0 12 7 16 15
3 8 4 15 3 15 -1 0 -68 -56 -149 -124z"/>
<path d="M1977 21658 c-205 -296 -748 -1090 -750 -1098 -2 -7 380 -276 407
-286 10 -4 818 1164 823 1189 2 11 -364 269 -401 283 -9 4 -36 -26 -79 -88z"/>
<path d="M2576 21244 c-37 -53 -65 -98 -64 -99 24 -17 298 -204 305 -208 14
-9 168 172 157 182 -16 14 -309 213 -320 218 -7 2 -42 -39 -78 -93z"/>
<path d="M2350 20915 c-38 -57 -70 -106 -70 -109 0 -8 282 -197 290 -194 17 7
161 201 153 208 -16 15 -291 200 -297 200 -3 0 -37 -47 -76 -105z"/>
<path d="M2178 20662 c-13 -14 -104 -147 -130 -188 -5 -7 46 -47 137 -109 80
-54 146 -97 148 -94 52 66 146 213 140 219 -9 7 -251 172 -269 183 -6 4 -18
-1 -26 -11z"/>
<path d="M3585 20554 c-39 -89 -45 -108 -34 -119 12 -11 8376 -5751 8451
-5799 l27 -17 65 97 c36 54 62 101 58 105 -14 13 -8495 5831 -8507 5835 -7 3
-31 -38 -60 -102z"/>
<path d="M1888 20241 l-67 -98 142 -98 c78 -53 147 -99 152 -101 6 -2 38 41
72 96 l61 100 -145 100 c-79 55 -145 100 -146 100 -1 0 -32 -44 -69 -99z"/>
<path d="M3426 20175 c-27 -69 -47 -127 -45 -129 16 -13 8395 -5759 8403
-5762 14 -5 160 207 149 216 -12 12 -8450 5800 -8454 5800 -2 0 -26 -56 -53
-125z"/>
<path d="M3316 19891 c-10 -15 -86 -226 -85 -236 0 -12 8305 -5710 8322 -5710
19 0 150 198 141 212 -9 13 -8357 5743 -8367 5743 -3 0 -8 -4 -11 -9z"/>
<path d="M3135 19390 c-20 -60 -35 -114 -33 -119 4 -12 8220 -5650 8233 -5650
16 0 139 190 128 197 -6 4 -1870 1283 -4142 2842 -2272 1559 -4135 2836 -4140
2838 -5 2 -26 -47 -46 -108z"/>
<path d="M11844 16818 c-155 -346 -423 -865 -586 -1135 l-19 -31 190 -131
c104 -72 194 -131 199 -131 22 0 157 563 212 881 43 257 91 682 77 695 -2 3
-35 -64 -73 -148z"/>
<path d="M5415 15635 c-210 -34 -422 -118 -597 -236 -127 -86 -305 -266 -391
-395 -108 -163 -175 -323 -219 -522 -32 -145 -32 -426 0 -570 47 -209 114
-368 224 -533 76 -115 251 -293 366 -373 633 -442 1503 -315 1977 289 150 192
242 393 291 640 27 134 25 405 -4 541 -65 305 -187 531 -401 745 -211 210
-445 338 -736 401 -122 26 -386 33 -510 13z"/>
<path d="M11951 14085 c-221 -322 -404 -591 -406 -598 -4 -9 232 -67 842 -210
467 -109 851 -198 856 -197 4 0 7 9 7 20 0 32 26 74 64 106 l34 29 -488 715
c-269 393 -493 716 -498 718 -5 1 -190 -261 -411 -583z"/>
<path d="M13335 13156 c-26 -26 -41 -67 -32 -90 3 -8 49 -44 101 -81 111 -77
136 -81 173 -26 41 60 34 72 -79 150 -57 39 -111 71 -121 71 -10 0 -29 -11
-42 -24z"/>
<path d="M18305 10699 c-599 -42 -995 -400 -995 -899 0 -300 129 -519 418
-707 98 -65 197 -112 387 -183 307 -116 405 -190 405 -305 0 -45 -21 -95 -51
-125 -145 -139 -595 -103 -953 77 -48 24 -90 43 -92 41 -4 -5 -164 -656 -164
-669 0 -13 123 -72 221 -107 195 -69 417 -103 664 -103 210 0 315 15 493 67
355 106 602 357 667 682 13 63 16 118 13 220 -4 122 -8 148 -37 232 -41 121
-100 216 -193 308 -128 129 -276 214 -561 326 -215 84 -266 108 -332 152 -128
84 -124 214 8 278 155 76 473 45 733 -71 l111 -49 87 317 c49 175 89 326 89
335 2 14 -23 28 -103 60 -242 98 -537 143 -815 123z"/>
<path d="M25115 10699 c-599 -42 -995 -400 -995 -899 0 -300 129 -519 418
-707 98 -65 197 -112 387 -183 307 -116 405 -190 405 -305 0 -45 -21 -95 -51
-125 -145 -139 -595 -103 -953 77 -48 24 -90 43 -92 41 -4 -5 -164 -656 -164
-669 0 -13 123 -72 221 -107 195 -69 417 -103 664 -103 210 0 315 15 493 67
355 106 602 357 667 682 13 63 16 118 13 220 -4 122 -8 148 -37 232 -41 121
-100 216 -193 308 -128 129 -276 214 -561 326 -215 84 -266 108 -332 152 -128
84 -124 214 8 278 155 76 473 45 733 -71 l111 -49 87 317 c49 175 89 326 89
335 2 14 -23 28 -103 60 -242 98 -537 143 -815 123z"/>
<path d="M10930 10674 c-189 -16 -290 -26 -387 -41 l-113 -16 0 -1429 0 -1428
390 0 390 0 0 484 0 483 198 6 c216 6 322 23 480 76 339 113 556 336 643 661
20 73 23 109 24 265 0 209 -14 276 -90 430 -128 257 -354 412 -710 486 -88 19
-141 21 -440 24 -187 1 -360 1 -385 -1z m560 -635 c188 -30 290 -139 290 -309
0 -160 -92 -282 -249 -330 -68 -22 -250 -37 -295 -26 l-26 6 0 330 0 329 43 4
c88 8 174 6 237 -4z"/>
<path d="M13285 10673 c-109 -8 -350 -34 -421 -45 l-74 -12 0 -1428 0 -1428
390 0 390 0 0 540 0 540 48 0 c83 -1 191 -19 229 -39 95 -49 128 -117 213
-450 78 -303 119 -439 162 -528 l29 -63 410 0 c225 0 409 2 409 5 0 3 -15 36
-34 73 -43 86 -69 167 -167 535 -44 165 -94 338 -111 386 -50 143 -123 264
-205 337 l-35 30 44 29 c112 74 232 215 288 339 53 116 64 178 64 336 -1 127
-4 156 -28 235 -98 325 -332 510 -741 587 -96 18 -156 21 -460 23 -192 1 -372
1 -400 -2z m618 -634 c152 -29 229 -123 229 -278 0 -93 -15 -133 -71 -194 -75
-81 -193 -116 -393 -117 l-98 0 0 300 0 299 83 4 c97 4 184 -1 250 -14z"/>
<path d="M15210 9210 l0 -1460 958 2 957 3 3 338 2 337 -565 0 -565 0 0 245 0
245 505 0 505 0 -2 333 -3 332 -502 3 -503 2 0 200 0 200 535 0 535 0 -2 338
-3 337 -927 3 -928 2 0 -1460z"/>
<path d="M19370 10315 l0 -345 365 0 365 0 0 -1105 0 -1105 395 0 395 0 0
1105 0 1105 375 0 375 0 0 345 0 345 -1135 0 -1135 0 0 -345z"/>
<path d="M21736 9222 c-242 -790 -441 -1443 -444 -1449 -3 -10 82 -13 406 -13
382 0 411 1 416 18 14 44 186 673 186 677 0 3 149 4 332 3 l332 -3 105 -347
104 -348 422 0 422 0 -73 238 c-41 130 -243 783 -451 1450 l-376 1212 -471 0
-471 0 -439 -1438z m993 192 c50 -171 91 -314 91 -317 0 -4 -86 -7 -191 -7
-177 0 -190 1 -185 18 24 78 166 598 172 628 7 36 8 37 15 14 4 -14 48 -165
98 -336z"/>
<path d="M26390 9210 l0 -1450 395 0 395 0 0 1450 0 1450 -395 0 -395 0 0
-1450z"/>
<path d="M18080 5790 c-217 -8 -371 -21 -534 -45 -55 -8 -105 -15 -113 -15
-11 0 -13 -248 -13 -1419 0 -781 3 -1422 8 -1424 4 -3 79 -13 167 -24 230 -26
886 -26 1055 0 545 85 887 275 1116 617 104 156 173 329 215 536 34 167 39
485 10 653 -74 437 -305 754 -688 945 -288 143 -656 196 -1223 176z m577 -669
c283 -70 452 -249 510 -541 19 -99 19 -338 -1 -452 -33 -185 -94 -306 -210
-424 -144 -144 -301 -201 -583 -211 l-163 -6 0 826 0 826 38 4 c86 11 327 -2
409 -22z"/>
<path d="M22070 5790 c-217 -8 -371 -21 -534 -45 -55 -8 -105 -15 -113 -15
-11 0 -13 -248 -13 -1419 0 -781 3 -1422 8 -1424 4 -3 79 -13 167 -24 230 -26
886 -26 1055 0 545 85 887 275 1116 617 104 156 173 329 215 536 34 167 39
485 10 653 -74 437 -305 754 -688 945 -288 143 -656 196 -1223 176z m577 -669
c283 -70 452 -249 510 -541 19 -99 19 -338 -1 -452 -58 -324 -247 -534 -546
-608 -60 -15 -132 -23 -247 -27 l-163 -6 0 826 0 826 38 4 c86 11 327 -2 409
-22z"/>
<path d="M10570 5784 c-189 -16 -290 -26 -387 -41 l-113 -16 0 -1429 0 -1428
390 0 390 0 0 484 0 483 198 6 c216 6 322 23 480 76 339 113 556 336 643 661
20 73 23 109 24 265 0 209 -14 276 -90 430 -128 257 -354 412 -710 486 -88 19
-141 21 -440 24 -187 1 -360 1 -385 -1z m560 -635 c188 -30 290 -139 290 -309
0 -160 -92 -282 -249 -330 -68 -22 -250 -37 -295 -26 l-26 6 0 330 0 329 43 4
c88 8 174 6 237 -4z"/>
<path d="M12430 4320 l0 -1460 958 2 957 3 3 338 2 337 -565 0 -565 0 0 245 0
245 505 0 505 0 -2 333 -3 332 -502 3 -503 2 0 200 0 200 535 0 535 0 -2 338
-3 337 -927 3 -928 2 0 -1460z"/>
<path d="M14610 4320 l0 -1450 365 0 365 0 0 843 0 842 108 -210 c59 -115 265
-495 457 -842 l350 -633 393 0 392 0 0 1450 0 1450 -366 0 -365 0 3 -769 3
-769 -100 197 c-55 108 -246 454 -424 769 l-325 572 -428 0 -428 0 0 -1450z"/>
<path d="M20250 4320 l0 -1450 395 0 395 0 0 1450 0 1450 -395 0 -395 0 0
-1450z"/>
<path d="M24250 4320 l0 -1450 395 0 395 0 0 1450 0 1450 -395 0 -395 0 0
-1450z"/>
<path d="M25410 4320 l0 -1450 390 0 390 0 0 473 0 472 67 83 c37 45 70 79 74
75 5 -5 147 -253 318 -553 l309 -545 461 -3 c254 -1 461 0 461 2 0 3 -221 368
-492 813 -271 444 -492 817 -492 828 0 11 205 284 477 632 262 337 477 615
477 618 0 3 -219 4 -487 3 l-486 -3 -230 -335 c-126 -184 -281 -410 -343 -503
l-114 -167 0 505 0 505 -390 0 -390 0 0 -1450z"/>
<path d="M3376 4558 c-4 -106 -13 -276 -22 -378 -14 -171 -75 -682 -90 -757
l-6 -33 1420 0 1421 0 -55 73 c-129 169 -265 505 -338 832 -28 127 -76 408
-76 448 0 4 -506 7 -1123 7 l-1124 0 -7 -192z"/>
<path d="M2922 2398 l3 -633 2228 -3 2227 -2 0 140 0 140 -1995 0 -1995 0 0
355 0 355 1995 0 1995 0 0 140 0 140 -2230 0 -2230 0 2 -632z"/>
<path d="M3555 2656 c-21 -32 -10 -75 22 -87 34 -13 3623 -12 3657 1 33 12 43
52 22 85 l-16 25 -1835 0 -1835 0 -15 -24z"/>
<path d="M3582 2450 c-35 -15 -48 -54 -28 -85 l16 -25 1835 0 1835 0 16 25
c21 32 7 71 -32 85 -33 13 -3610 12 -3642 0z"/>
<path d="M3560 2210 c-11 -11 -20 -29 -20 -40 0 -11 9 -29 20 -40 20 -20 33
-20 1845 -20 1812 0 1825 0 1845 20 11 11 20 29 20 40 0 11 -9 29 -20 40 -20
20 -33 20 -1845 20 -1812 0 -1825 0 -1845 -20z"/>
<path d="M16560 1906 c-194 -56 -302 -212 -302 -436 -1 -148 41 -250 136 -338
194 -179 555 -98 646 145 97 260 5 533 -208 613 -71 27 -207 35 -272 16z m190
-166 c98 -50 147 -222 107 -377 -42 -160 -194 -222 -308 -126 -113 95 -114
371 -2 474 15 15 37 31 48 37 33 18 112 14 155 -8z"/>
<path d="M22717 1897 c-239 -84 -251 -349 -21 -457 35 -17 93 -44 128 -60 47
-22 67 -38 76 -60 17 -41 5 -77 -33 -101 -28 -18 -44 -20 -117 -16 -53 3 -104
12 -137 26 l-52 20 -11 -42 c-6 -23 -15 -57 -20 -76 -5 -19 -7 -38 -5 -42 3
-4 29 -16 58 -26 40 -14 82 -18 182 -18 127 0 132 1 197 33 134 66 186 207
120 332 -33 65 -86 103 -212 155 -132 55 -165 95 -125 152 31 45 157 53 244
17 18 -8 37 -12 41 -9 4 3 16 37 25 76 15 60 16 73 4 80 -30 19 -88 31 -179
35 -82 4 -104 1 -163 -19z"/>
<path d="M10380 1480 l0 -430 100 0 100 0 -2 428 -3 427 -97 3 -98 3 0 -431z"/>
<path d="M12007 1904 c-4 -4 -7 -198 -7 -431 l0 -423 97 0 96 0 -6 312 -6 312
36 -79 c20 -44 77 -154 127 -245 49 -91 106 -194 126 -230 l35 -65 108 -3 107
-3 -2 428 -3 428 -90 0 -90 0 1 -226 c0 -125 4 -260 7 -300 l6 -74 -23 55
c-34 82 -104 216 -203 390 l-88 155 -111 3 c-60 1 -113 -1 -117 -4z"/>
<path d="M14193 1903 l-43 -4 0 -423 0 -423 46 -7 c26 -3 95 -6 155 -6 338 0
520 130 548 393 26 238 -81 402 -294 457 -63 16 -107 20 -224 18 -80 -1 -165
-3 -188 -5z m374 -171 c52 -27 98 -82 113 -137 17 -62 9 -210 -14 -258 -22
-46 -66 -92 -108 -113 -39 -20 -143 -35 -185 -28 l-33 6 0 272 c0 150 3 276 8
280 15 16 176 0 219 -22z"/>
<path d="M18470 1480 l0 -430 91 0 90 0 -3 310 -3 311 41 -88 c22 -48 96 -188
163 -310 l123 -223 104 0 104 0 0 430 0 430 -91 0 -91 0 4 -293 3 -292 -41 92
c-43 96 -235 444 -262 476 -13 14 -33 17 -124 17 l-108 0 0 -430z"/>
<path d="M20610 1480 l0 -430 275 0 275 0 0 80 0 80 -175 0 -175 0 0 100 0
100 155 0 155 0 0 80 0 80 -155 0 -155 0 0 85 0 85 165 0 165 0 0 85 0 85
-265 0 -265 0 0 -430z"/>
<path d="M24507 1903 c-4 -3 -7 -197 -7 -430 l0 -423 100 0 100 0 0 430 0 430
-93 0 c-52 0 -97 -3 -100 -7z"/>
<path d="M26330 1907 c0 -3 -233 -769 -254 -835 l-8 -23 104 3 103 3 29 108
29 108 121 -3 120 -3 34 -107 34 -108 105 0 c95 0 104 2 99 18 -104 339 -249
803 -256 820 -9 21 -14 22 -135 22 -69 0 -125 -1 -125 -3z m171 -337 c22 -74
39 -138 39 -142 0 -5 -40 -8 -89 -8 l-89 0 14 48 c8 26 26 92 40 147 32 126
36 136 42 110 2 -11 22 -81 43 -155z"/>
<path d="M2270 765 l0 -635 2885 0 2885 0 0 140 0 140 -2635 0 -2635 0 0 355
0 355 2633 2 2632 3 3 138 3 137 -2886 0 -2885 0 0 -635z"/>
<path d="M2886 1034 c-20 -19 -20 -54 -2 -80 14 -19 53 -19 2504 -22 1592 -1
2500 1 2516 8 33 12 43 52 22 85 l-16 25 -2505 0 c-2263 0 -2505 -2 -2519 -16z"/>
<path d="M2890 810 c-25 -25 -26 -62 -2 -83 17 -16 206 -17 2520 -17 l2502 0
16 25 c21 33 11 73 -22 85 -16 6 -938 10 -2510 10 -2471 0 -2484 0 -2504 -20z"/>
<path d="M2887 582 c-23 -25 -21 -58 3 -82 20 -20 33 -20 2515 -20 2482 0
2495 0 2515 20 24 24 25 48 4 78 l-15 22 -2503 0 c-2412 0 -2504 -1 -2519 -18z"/>
</g>
</svg>
